<svg xmlns="http://www.w3.org/2000/svg" xmlns:xlink="http://www.w3.org/1999/xlink" version="1.0" viewBox="0 0 150 150">
  <defs>
    <path id="b" fill-opacity=".1" d="M-15-15h180v180H-15z"/>
  </defs>
  <defs>
    <clipPath id="c">
      <path d="M15 25h120v99H15Zm0 0"/>
    </clipPath>
    <clipPath id="d">
      <path d="M111.8 117h.3v.3h-.3Zm0 0"/>
    </clipPath>
    <clipPath id="e">
      <path d="M112.1 117.2c-.6.3 0-.2 0-.2"/>
    </clipPath>
    <clipPath id="h">
      <path d="M.8 0H1v.3H.8Zm0 0"/>
    </clipPath>
    <clipPath id="i">
      <path d="M1.1.1c-.7.4 0-.1 0-.1"/>
    </clipPath>
    <clipPath id="g">
      <path d="M0 0h2v1H0z"/>
    </clipPath>
    <clipPath id="j">
      <path d="M94.6 87.6h.4v.3h-.4Zm0 0"/>
    </clipPath>
    <clipPath id="k">
      <path d="M95 87.8c-.7.3-.1-.2-.1-.2"/>
    </clipPath>
    <clipPath id="n">
      <path d="M.6.6H1v.3H.6Zm0 0"/>
    </clipPath>
    <clipPath id="o">
      <path d="M1 .8C.3 1 .8.6.8.6"/>
    </clipPath>
    <clipPath id="m">
      <path d="M0 0h1v1H0z"/>
    </clipPath>
    <mask id="f">
      <g filter="url(#a)">
        <use xlink:href="#b" fill-opacity=".1"/>
      </g>
    </mask>
    <mask id="l">
      <g filter="url(#a)">
        <use xlink:href="#b" fill-opacity=".1"/>
      </g>
    </mask>
    <filter id="a" width="100%" height="100%" x="0%" y="0%">
      <feColorMatrix color-interpolation-filters="sRGB" values="0 0 0 0 1 0 0 0 0 1 0 0 0 0 1 0 0 0 1 0"/>
    </filter>
  </defs>
  <path fill="#231f20" d="M120.5 46.1v.3l.3-.4-.3.1m.9-1-.6.9c.4-.2.6-.5.6-.8m-14.9 18.5v.2c0 .1-.4.8-1 1.5.1.2 0 .2-.2.3-.6.1-.2.9-1 1.3l.3.2-.5 1 5.3-8.5c-.6.3-2.2 3.7-2.8 4m7.6-11.8a41.4 41.4 0 0 0 2-3 10 10 0 0 0-2 3m-14 23.2s3-3.6 2.8-4c-.3.2-2.8 4-2.8 4m16.2-26.3.1-.3.2.2c-.2-.6 1.7-2.6 1.9-3.5a16 16 0 0 0-2.2 3.6m7.3-6 .2.3c.5-.5.5-.5.3-.8 0 .1 0 .4-.3.4 0-.6.5-.8.6-1.2l-.1-.1-1.2 1.8.5-.4m-7 2-.4-.3c0 .2-.2.4-.4.6-.2.2.2.7-.3.6l.2.3 1-1.3M79 108.2c.3 0 1.2-1.6 1.4-2-.7.5-1.4 1.6-1.4 2M117.8 43l-.2.2c0-.2 0-.2.2-.2Zm0 0c.2 0 0-.3.1-.4h-.3l-.3.8c-.1.4-.4 0-.4.7.4 0 .8-.7.9-1.1m-11.2 23.8c-.7.8-1.5 1.5-2 2.4.8-.7 1.4-1.5 2-2.4m18.2-22v-.3c-.6.3-.6 1-1 1.4.7 0 .4-.8 1-1.1m-4.9-1.6c-.6.4-.8 1-1.2 1.7a.9.9 0 0 0 .1 0l1.1-1.7M106.3 63c-.5-.4-.9.6-.8.7.3-.2.6-.4.8-.8m17-15.4c.2-.1.2-.3 1-1.4a.7.7 0 0 0-.2 0l-.9 1.4M105.1 68c-.4.2-.6.7-.8 1.2l.9-1.1-.1-.1m-1.9.6-.6 1c.4-.2.6-.5.6-1m2.2-4.7-.4.2v.4c.3-.1.4-.3.4-.6m10.5-20.8c.4-.3.5-.6.5-.8-.2.2-.5.6-.5.8m10.5-1.2-.8 1.2c.3 0 .7-.8.8-1.2m-1 1.7a1.5 1.5 0 0 1 0-.1c-.3.1-.4.5-.7.7l.1.1.7-.7m-23 26.3h-.4l-.1.5.6-.5m25.1-30.3c-.1.2-.4.4-.4.7.2-.2.4-.3.4-.7m-2.6 5c-.1 0-.1.3-.3.2v.4c.2 0 0-.4.3-.6m-3.8-.1-.5.7c.3-.2.3-.2.5-.7m5.9-4-.4.7h.3c-.2-.3.1-.3 0-.6m-3.8 6.3-.4.5c.3-.1.4-.3.4-.5m2.3-3.2.5-.6a.2.2 0 0 1-.1 0l-.4.6M107.1 66a.5.5 0 0 0 .4-.3c-.3 0-.3.2-.4.3m9.3-22 .2-.4h-.1l-.2.3h.1m-12.3 23.6.3-.5-.4.4.1.1m22-28.6.2-.3c-.2.2-.2.2-.1.3M72.4 99.8v-.2l-.8-.7c0 .6.4 1 .8.9m-5.8-15.6h-.2c0 1 .5 7.4 1.4 8.2.3-.3-1.2-8.1-1.2-8.2M59 104c.2-.3 0-.5-.1-.6-.2-.1 0-.5-.4-.4l.4 1-.7.1c-.5 1.3.4 1.6 1.2 2-.3-1-1-.7-.4-2m7.8-10.8h.2c-1-2.2.3.2-3.3-4.2 0 1.6 2.8 2.6 3.1 4.3m2.1 1c.8 1 .4 1 1.2 1.4h.1c-.7-1-1.7-1.8-2-3H68c-.1 1.8.6 1.2 1 1.7M25.3 44.4c.6.7 0 1.4.9 1 0-.4-.4-1-.9-1M28.5 31c-.1-.5-.4-.9-1-1 .4.8.2.5.8 1.1l.2-.1m28.6 73.7c.2.5.4.9.8 1.2h.1l-.8-1.3-.1.1m-5.8-10.1c.3.3.2 1 .8 1-.6-1-.5-1-.8-1m3.6 6.7.7 1h.1l-.6-1h-.2m1.6 2.4c0-.3-.2-.5-.4-.9 0 .5.1.8.4 1m3.8 3.8c.4.1.2 0 .7.4-.2-.4-.4-.8-.7-.4M56 101l-.6-1c.2.4.1.8.6 1m15.4-3.9-1 .3c.3.1.6 0 1-.3M28 46.8l-.4-.8h-.1l.5.8M18 36.5h-.1m-.4-.5.4.4c0-.1.1-.5-.4-.4M60 106.8h-.1c-.1.3.2.4.4.5l.1-.1-.4-.4m-9.5-13.5s.2-.4-.3-.3l.3.3.5.6c-.1-.3 0-.6-.5-.6M23.8 46.6l.4.8c.1-.4-.2-.6-.4-.8m6.9.8.3.6.2-.1c-.3 0-.1-.5-.5-.5m13 35-.6-.4c.2.6.2.6.6.4m-20-35 .3.7-.3-.7m26 44-.4-.1s-.2.5.5.1M27 44l-.1.1.2.3-.1-.4m1 3.3.3.6-.3-.6m-1.8 1L26 48c-.3.4.2.3.3.5M71 101.9v.4h.3l-.2-.5a.5.5 0 0 1-.1 0M22.8 44.7l.3.4h.1l-.3-.5M54.1 99l.2.3.1-.1-.3-.3m.8 1-.3-.5.3.5m-29.6-53h.2v-.4h-.2v.4m27.4 49.5-.2-.3c-.2.3-.2.4.2.3m7.5 8.2H60l-.2.5h.2l.2-.5M28.3 44.7l-.4.3.3.2.1-.5m34.9 45.5h.1l-.2-.3-.2.1.3.2M24.4 47.6l.1.4a.6.6 0 0 1 .1 0l-.2-.4M44.3 84l.2.4.1-.1-.3-.3M58 106.3l.2.3.2-.1-.2-.3-.1.1"/>
  <path fill="#231f20" d="m59 104 .1.3c.1-.2.2-.4-.1-.3M30 47.4v.1l.2.2-.2-.3m-2.7-.5h.1v-.3h-.2l.1.3m26.8 51.6-.3-.2.1.3a1 1 0 0 1 .2-.1M25.9 45.9l.4.2c-.1-.2-.1-.2-.4-.2M15.7 31.3l-.1-.2h-.1v.2h.2M45 84l.1.2V84H45M23.3 45.6l.1.2a.1.1 0 0 1 .1 0 4.2 4.2 0 0 1-.1-.2m29.8 51.7.1.3.1-.1v-.3l-.2.1m-4.4-6.6.1.2h.1l-.1-.3-.1.1m5.1 8.7v.1h.2l-.2-.1M21.4 33.8l-.2-.2.1.2m6.3 13.4.2.3c0-.2 0-.2-.2-.3m-8.8-10v.4l.2-.1-.2-.1M71.5 99l-.3.1c0 .2.2.1.3 0M25.8 49v.3-.2m16.1 20.4h.2L39 64.1l-.2.1c.2.7 2 4.5 3.1 5.2m-.5-5h.3a.8.8 0 0 1 .1 0c-.7-1.3-.4-.9-1-1.4-.2.7.7.8.6 1.3m-.1 5.3c0 .1.6 1.9 1 1.9a4.3 4.3 0 0 0-1-1.9M40 63c.3-.6-.4-.5-.4-.9-.2.5.3.6.4.9m-.4.8.5.5h.1l-.2-.5h-.4m6.3 14.8.5.7c0-.2 0-.7-.5-.7m1.7 1 .5.8c0-.2-.3-.9-.5-.8m-5-9.4-.3-.5c-.2.4.3.3.4.5m-6-12.5.1.4h.2l-.3-.5m3.7 5c-.3.5 0 .6.1.8v-.7m1.4 2.4c.2-.4.2-.4-.3-.3l.3.3m-.9.3h-.4c.3.2.2.2.4 0m-.9 0 .3.2h.1l-.3-.3-.1.1m-4.6-11.2.1.5a.7.7 0 0 1 .1 0v-.5h-.1m6.6 18c.2-.4.2-.4 0-.3v.3m-2-4.3h.1m0 0-.5-.1c.2.2.2.2.5.1M37 56.2v.2h.2l-.2-.2M43 71l.3.1h.1l-.2-.2-.2.1m-7.7-16.8.1-.2h-.2c-.2 0-.2 0 0 .2m11.1 21V75l-.2.1.2.2m.2 4.6.1-.3-.3.2.2.1m-1-5.3.2.1a3.7 3.7 0 0 1-.1-.1m-2.8-4v.1a.6.6 0 0 0 .1 0l-.1-.2M40.3 68v.4c.2-.2.2-.2 0-.4m.1 6.5-.7-1.2c.1 1 .3 1.2.7 1.2M39.2 72l.3.2-.4.2c.3.2.3.2.7 0-.2-.2-.2-.4-.6-.4m.3 2.8.5.6v-.1l-.4-.6-.1.2M40 73l.3.3c.1-.3.1-.4-.3-.3m-1-.3.2.3.1-.1-.2-.3H39m.4-1.2v-.1l-.4.2.4-.1m-.7-1.2v.1c.2 0 .1 0 .1-.2h-.1m18.2 28.1.6.6.1-.1-.6-.6-.1.1m-11.3-55"/>
  <g clip-path="url(#c)">
    <path fill="#231f20" d="M20.5 38.5c-.1 0 0 0 0 0Zm.6 1.4H21h.2Zm.1 1.2Zm.5-4.1h.5v.3l-.5-.3Zm-.8-.4c.2-.4.4-.2.6-.3v.1l-.6.2Zm3-1.8c-.2.2-.1.2-.3 0h.2Zm0 2.3a1 1 0 0 1-.1 0c.1-.2 1.3-.4 1.7-.5.2.5-1.2.5-1.7.5Zm2-.5c0 .3 0 .4-.2 0a1 1 0 0 1 .1 0Zm.2 1.7Zm.3-1.8c.2-.2.8-.1.7.2 0 0-1.1.3-.7-.2Zm.7-.6v.2h-.5V36h.5Zm0 1.9s0-.1 0 0Zm.4-1.9c0 .1 0 0 0 0Zm.3.5 1.4-.1h.4c0 .3-.3.5-.5.4H28c-.5 0-.3-.3 0-.3Zm1.9-2.8c.2 0 .5 0 .7.3h-.5a8 8 0 0 0-.2-.3Zm-.4 0Zm.2-.5v.2h-.1l-.2.2a8.9 8.9 0 0 1-.3-.4h.6Zm2 2.8h.1Zm1.3-.1v.5c-.2 0-.4 0-.5-.4l.5-.1Zm-.1-.3h-.1c0-.1 0 0 .1 0Zm1.4 3.2h-.3.3Zm1.2-6.8v.1h-.1.1Zm.7 4.9Zm0-4.9h.2a.7.7 0 0 1-.1 0Zm.6 5.5v.1Zm0-1 .1.1Zm.1 1.7V38Zm.9.4c-.2.3-.3.2-.5.1.1 0 .3-.2.5 0Zm-.2-.4h-.1c0-.1 0-.1 0 0Zm1-1.2-1 .2V37c.3-.1.6-.2 1-.1Zm-.2-.5h.2-.2Zm.4-4.6h-.2.2Zm-.4 6.6c.2-.2.3 0 .5 0h-.5Zm-.3 2.7h.8c-.3.3-.4.3-.8 0Zm.8 3.9h-.3v-.2h.3a.5.5 0 0 1 0 .2Zm.5-1c-.2-.1-.4 0-.5-.3.3-.2.3-.2.5.2Zm.8-6.2c-.3 0-.7.3-1.2-.1H40Zm.2-1-.2.1c-.9.4-.8.4-1 0 .4 0 .7-.2 1.2-.1Zm-.6-1.2c-.1.1 0 .1-.2 0h.2Zm1.1 2.3h-.4c.2-.2.2-.2.4 0ZM41 43h-.3l.3-.1v.1Zm-1.9-.7c.4-.2.8-.1 1 0-.3.2-.6.1-1 0Zm2.6.6v.7c-1.6.3-1.1-.3-2.1.1-.2-.2 0-.4 0-.5.2-.3.3-.1 1.2 0 .6.2.4-.4.9-.3Zm.8 1.6v.2h-.7l.7-.2Zm-.6-6.6c0 .1 0 .1 0 0Zm.2 5.4v.4l-.2-.3h.2Zm0-1.2v.1Zm.4-4.2-.1.1h-.1c0-.2.1-.1.2 0Zm.4 0-.2.2-.2-.7.4.4Zm-.3-2.7Zm.1 5.6.1-.1v.1Zm0 2.2c.1-.2.2-.1 0 0Zm.8-.2.1.5c-.3.3-1 .2-1.4 0 1-.2 1-.2 1.3-.5Zm-.1-3v.1a.5.5 0 0 0-.1 0Zm0-2.4h.1c0 .1 0 .1-.1 0Zm.3-2-.2-.3c.2 0 .2 0 .2.3Zm0-5.2.3.5h-.5l.2-.5ZM43.3 41v-.1c.3 0 .3.1 0 0Zm0-3h.7c-.3.2-.4.2-.7 0Zm1 .4h-.8c.1-.2.1 0 .7-.2v.2Zm.1-3.2v.1Zm.3 1.2h-.2.2Zm-.2 2.2.2-.4c0 .3 0 .3-.2.4Zm.2 2.2c0 .1 0 .1 0 0Zm-.5.1h.2v.1h-.2Zm-.4 0h.1c0 .1 0 .1-.1 0Zm1.5 2.2c.1-.2.4-.3.7-.3v.3c.3 0 .7-.3 1.1 0 0 .5-1.3.3-1.5.2v.2s-3.1.5-1.3-.8l1 .4Zm-.3-1Zm0-5v.2-.1Zm.2 3.9c0-.2 0-.1.2 0h-.2Zm.3.7h-.2.2Zm0-3.7-.3.2V38l.3-.1Zm.4.9h-.2.2Zm0 1.8h.2v.1H46v-.1Zm.3-9.6-.2.2V31h.2Zm.2-1v.1Zm.1 8.3c0 .1 0 .1 0 0Zm.3 2.3c0-.1 0 0 0 0Zm0-3.7-.4.1V37h.4Zm.2-6h.2v.1H47Zm.2 7.4c0-.1 0-.1 0 0Zm-.1 4.3v-.2.2Zm.2-1H47l.1-.1Zm2.3 1.1-.2.4c-.9.1-1.6.3-2 0l2.2-.4Zm-2-.9h.1-.1Zm.2-4Zm.2-1h-.2c.2-.1.2-.1.2 0Zm-.1 3.6a2 2 0 0 1 0 .2v-.2Zm0 2.1h.2v.2h-.3v-.2Zm1-.7v.1Zm.7-4.4v.1l-.5.1v-.1l.5-.1Zm0-6.8v.1h-.3.3Zm.3 5.8v.2h-.4c.1-.2.3-.2.4-.2Zm.5 6.3c-.2.1-.2.1-.4 0 .1 0 .3-.2.4 0Zm0-.4v.1H50h.2Zm.5-12.3c-.3.2-.5.2-.7 0 .2 0 .4-.2.7 0Zm.5.4v.1h-.2.2Zm.2-.5c0 .1-.2.3-.3 0h.3Zm2.2-.3v.1c-.3.2-1.6.4-2.2.2l2.2-.3Zm.1.6s0-.1 0 0Zm.1 7c-.9 0 0-.7 0 0Zm.6 6.3v.1c-.2 0-.4 0-.5-.2l.5.1Zm.3-13.9c-.2.3-.4 0-.6 0 .2 0 .4-.2.6 0Zm.2 7.2c-.1.3-.1.3-.5.3.2-.4.2-.4.5-.3Zm.6 0c-.3.3-.4 0-.6 0l.1-.2.5.2Zm.7-1.5Zm1-6.1h-.3c.1-.1.3 0 .4 0Zm1.1 0V29Zm.8-.6h-.2.2Zm2 7.7c-.3.1-.6.3-1 0h1Zm0-8H61h.3Zm-8 1.9h.2l-.2.1v-.1Zm0 6.8v.3a2.9 2.9 0 0 1-.1-.3Zm-.3 6.6c-.1.2-.2.3-.4 0h.4Zm-.6-6.3c.1-.1.2-.3.5-.2-.2.3-.2.3-.5.2Zm-1.9-.8h.1Zm1.4.5v.3l.3-.4.2.4c-.4.2-.5.1-1.4 0l-.5.2c0-.5.2-.4 1.4-.5ZM43 44.6h.2-.2Zm71.8 2.2.4-.2c0 .3 0 .3-.4.2Zm-1.3 2.2v-.3l.2.1-.1.2Zm-2.7 1.7.2-.3a.9.9 0 0 0 .1 0l-.2.3Zm-8.4 17.8v-.1.1Zm19.3-23 .2-.2-.1.3Zm.8 2.9.2-.3-.2.3Zm8.1-11c0-.2 0-.2.3-.2-.2.2-.1.2-.3.1Zm-2.8 0c.3-.2.7-.2 1.1-.1.1.8-.7.3-1.1.2Zm-1-.3.5-.1-.5.4a4.2 4.2 0 0 0 0-.3Zm-1-.2c.1 0 .3 0 .5.2-.2.2-1 .3-1.2.2l.3-.6.3.2Zm0 0 .5-.1c-.2.2-.4.1-.6 0Zm1 .2h-.5l.4-.2v.2Zm-3-.4c.2 0 .2 0 .3.4l.7-.4-.1.5c-.6.1-1 0-1-.5Zm-1.8 0c0-.3.1 0 .2 0a4.1 4.1 0 0 1-.2 0Zm-.8-.2h.3c0 .5.3.4.5.5-.3.3-1 .2-1.6 0l.8-.5Zm-1.5.4Zm5.2 3.6c-.4 0-1 .3-1.7-.5 1.9 0 .9.1 2 .3a1.3 1.3 0 0 0-.3.2Zm-3.3-.2c0-.1 0-.1 0 0Zm-.8-.3h.1c0 .3 0 .3-.1 0Zm-.7 0h.2-.2Zm-34 2.5H86Zm3.8.2-.2-.1h.2Zm.7.4H90l.2-.6h.6l-.4.2.2.4Zm1-.6a1 1 0 0 1-.2 0h.2Zm.5.7h-.4c0-.2 0-.3.2-.4l.2.4Zm.4-.2c.4-.6.6-.7 1.1-.2l.4-.3c.3 1.2-1 .2-1.5.5Zm1.4-.8v-.1l.4-.1v.1a.8.8 0 0 1-.4.1Zm1.8-.2h-.2l.2-.1Zm2.2.4c.2.1 0 .2 0 .4 0-.2-.2-.3 0-.4Zm1.5-.4-.1.1v-.2l.1.1Zm1.4.3h-.3.3Zm.3.3v.1Zm.7-.3h-.1c0-.1 0-.1 0 0Zm1-.3Zm8.3 0c0-.4.4-.4 0 0Zm-47.8.8c.7-.3 9.2-1 9.6-1.1h2.2c.6 0 .4-.1.6-.5l.7-.1.2.3c1.3-.6 11.5-1.3 11.6-.5.4-.8 1.1 0 1.5-.6h.3c.2.3.4.2.6.2v-.2c.2-.2.5 0 .7.2.5-.3.8-.6 1.2-.2.3.2.3.2.5 0 .5-.5.4.3 1 .1 1.3-.2 6.5-.5 7.3-.3l-.2.4c2-1 .8-.2 2.4-.5.1 0 .3 0 .4.2l-.2.2c.5.2.4-.5.9-.3l3.4.1c.3.3.4.2.8-.2.9 1 .5.2 1 .2l1.2.1.1.4c.7-.9 1.8.3 2.7-.4.4-.3.3.1 1 .3l-.2.2.3.2h-3.8v.3c-.4 0-.4-.3-.7-.1h-.1c-.5-.3-1 .2-1.2 0l.3-.1c-.3-.2-1.4.1-1.8 0-.5-.3-.6 0-.8.3-.6-.1-.8.3-1.2 0-.2 0 0-.4-.3-.4 0 .5-.3.5-.6.5-1 0-.4 0-1.2-.6l-.2.4h-.5V41l-1-.2.3.4c-.7.3.5-.4-3.6.4-.3-.4-.4-.4-.9 0v-.3c-1.3.4-4.6.3-4.6.3l.2.1c-.3.3-.6-.4-.7 0-.2.3-.2.2-1.6.2v.4c-.7-.5-1.4-.5-2 0l-.5-.3c-1.6-.1-1.4 0-1.2.6-.3.1-.7.1-.6-.1h.3c-.5-1-.8 0-1.4-.6l-.7.3.3.2c-.2.3-.4.3-.6.2 0-.2 0-.4-.2-.3l-.1.6c.3.6.9 0 2.6.3l2.2.2c-1 0-1.2 0-1.3-.2.2-.1 1.3-.2 1.7.1.4.3 6 .5 6.3.2.5.2 0 .2 1.7 0-.2-.4-.5-.2-.7 0-1-.9-.4 0-1.2-.3-.3.2-.6 0-1 0 0-.2-.2-.3 0-.6 0-.3.1-.7.5-.7v.4c.3.2.7 0 1 .4.2-.6.7.1.8-.5.4 0 .7.4 1 .6.4.1.4.1.5-.4 3.4 0 .4.8 3.5.3.6-.1.2.4 0 .7.2 0 .4.2.5 0l.1-.8c.2-.1.2.2.4.3 1.2-.8 2.5 0 5-.4 0 .2 0 .4.2.4l.7-.6c.5.5.2.7 2.4-.3v.2l1.3-.2c0-.9 1.3 0 2-.5a3 3 0 0 1 1-.1l-1.3 2.2c.6-.6 1.1-1.4 1.7-2.2h.5l.3-.1h.4c-.3.5-.5.8-.4 1 0-.2.3-.5.7-1h.2c.1 0 .2 0 .2-.2h-.3l.3-.4h7.1l-.2.5.4-.5h.2l-.1-.1.2-.4h-.1l-.2-.1h.9l-2.1-.2c-1.5-.2-.6.4-1.6.3l.1-.3c-3.4-.4-1.5-.2-4-.3l.3-.6 7.3.2-.2.2h.1c.1 0 .2 0 .3-.2a.5.5 0 0 0 0-.3l-.2.3a77 77 0 0 1-7.6-.7l.2-.2c-.6-.2-.1 0-1 .4l.8-1.3c2.7-.2 7.5 1 10.4.5l-.1.4.3-.4.7-.2-.3-.3c.3-.3 2 .3 2.2 0h-.3c0-.5 0-.6-.4-.6h.2a2.1 2.1 0 0 0 0 .2h-1.5l.3-.5-.4.4c-.9 0 0 .2-1.3.2-.8 0-.4-.3-1-.4-2.7-.3-3.2 0-3-.5 0-.2-.5-.2-.7-.2l.1.4h-.6l.3-.4h-.7v.3H121l.1.2c-.2 0-.5.2-.8 0l.3-.2-.3-.4c-.3.7-1-.2-1.3.4l.2.2a1 1 0 0 1-.5 0l1-1.8 13.2.7-1 1.8h-.4.3c-3.5 5.7-8.8 14-9.7 13-.2.1 0 .4-.4.3.3-.4.7-.8.8-1.5l-.9 1 1.4-2.3-.4-.2c-.3.7 0 .3-1.8 2.7l.3-.1c-.5.6-.6 1.4-1.3 1.8-.3-.3-.4.1-.6.2.2-1.7 2.6-4.4 2.1-4.8.4-.2.5-.3.6-.7l-.3.1c.2-.5 1.3-1.8.8-2.2-.9.6-1.9 2.6-2.9 3.6l.8-1.6c-3.7 5-13 19.2-13 19.2-.4 1.6-9.1 12-9.2 12 .2 0 .2-.3.6-.4-.1.2-1.4 2.3-2 2.4l.6-1.6H97c4.6-7.5 5.9-10.2 6.2-10.1.2-.3.5-.5.6-.9l-.3.2a7 7 0 0 1 1.6-2.6l-.4-.3v.5c-.1.3-.7 0-.5.3.2.4-.4.4-.6.5l-.3.5c0-.3.7-1.5 1-1.7.1-.5 7.3-11.4 7.2-11.7.2 0 .4 0 .4-.2a2.8 2.8 0 0 1-.2-.1c.7-1 1.5-1 1.3-1.9-.3.2-.2.7-.6.8 0-.4-.3.1 1.2-2l-.1-.1c.7-.6.5-.3.8-1.1h-.3c0-.3.3-.3.6-.4.2 0 .3-.2-.2-.4.8-.4.6.2 1.4-1.4h-.4c-.1-.1 0-.3.2-.3 0-.4-.4-.3.1-.8.2-.2.5-.4.4-.8l-3.4 4.9c-.1-.3-.2-.1-.4-.1.2.3-.4 1.1-.8.7.1 0 4.1-5.6 4.2-6.4-1.3 1.3-2.6 4-3.3 4.2 0 0 .9-1.6 1.6-3.4-.9.7-3.7 6.2-5 7l.2-.5s-16.3 27-19 29v-.8c-.9.7-11.2 17-12.4 18.5V97c.3-.9 1-1.6 1.3-2.5-.3-.2-.4 0-.5.2l-3.7 5.7a9 9 0 0 1-2.4-1v.7l.4-.2c1.2.8 1.3 1 1.6 1l-.4 1c-3.4-.4-3.2-1.4-3.2-1.4l-.2.4c-3.9-1.8-3.7-5.8-4.9-7a35.2 35.2 0 0 1-3.7-4c.4-.3 1.5-.7.6-1.3l-.5.3c-.7-.7-.9.1-1-.5-1.7-5.6.4-.6-3.4-5.6-.4-.5.5-.7.8-1.7.2-.7.1-1.3 0-1.8a6.7 6.7 0 0 0-2-1v.1c-1 0-.7-.6-.8-1.4h-.1v.7l-.2.1-.8-1c-6-15.3 1.5-6.3-13.4-24.5-3.5-4.2-3.2-2.6-3.1-5 0-.6-.2-.8-.1-1h.3l.1.2h.1v-.3l.3-.1c.6-.3.6-.4 1.1-.3l-.5.4c.5.5 23.7-3.5 23.8-3.5Zm.4-13.7c-.2.2-.4.2-.5 0h.5Zm1-.2v.1l-.5.1V29l.5-.1Zm1.2 12.5c-.4.3-.5.3-.8-.1l.8.1Zm.5 0a.6.6 0 0 0-.1 0Zm2.2-13.3h-.1c0-.1 0-.1.1 0Zm2.4 6-.1-.1Zm1.4-6.3a.9.9 0 0 0-.1 0c0-.1 0-.1.1 0Zm2.7 13.5h-.2.2Zm.1.1Zm1.1-8.2c-.1.1-.2.2-.4 0h.4Zm4.6 6.2h-.4c.2-.2.3-.2.4 0Zm1.8-10.7-.2.1h.2Zm.5 7.2h-.5c.2-.2.2-.2.5 0Zm1.5-1.2c0 .1 0 0 0 0Zm2.2 3.7h-1 1Zm.4-.4H87h.2Zm1-3.1-.2-.3c.2 0 .3 0 .3.3Zm.7-.3-.1.1c-.1 0-.2.1-.2 0 0-.2.2-.1.3 0Zm1 3.7c-.2.2-.2.2-.6 0l-.5.2c.2-.2.1-.1 1.1-.2Zm-.3-3.8c.6.3.7 0 1.3 0v.1c-.5.3-1.3.3-1.6 0h.3Zm.8 5.8h-.2.2Zm.6-2.4h-1a1.3 1.3 0 0 1 1-.1Zm.4-2.4a1.4 1.4 0 0 1-.1 0Zm.5-1h-.1Zm.2 3.4c-.3 0-.2 0-.2-.2l.1.2Zm1.6 1c-.3.2-1.4.2-1.8 0a4.5 4.5 0 0 1 1.8 0Zm-1.3-1.2c.6-.1 1.2.2 1.8 0l-.1.3-1.7-.1v-.2Zm0-3.3h.2a.7.7 0 0 0 0 .2h-.2v-.2Zm.8 0v.2-.1Zm.5 0v.1Zm1.2 0c-.3.3-.5.3-.8 0h.8Zm.3 3.3v.1c-.4.1-.4 0-.4 0 .4-.2.3-.2.4-.1Zm2.7-3c-1.9-.4-2.1.4-2.7-.3 2.6 0 2.4 0 2.7.2Zm-2.4-2.2v.1c0-.1 0 0 0 0Zm2.5 0Zm1.3 1.9-.4.2c-.3-.1-.5.2-.8-.2h1.2ZM97.3 36c0-.1 0-.1 0 0Zm-.3-.6h.2a2.2 2.2 0 0 1-.2 0Zm-1.3 2.4h.3-.3Zm-.8.4Zm-.8 1.2H94c0-.1 0-.1.1 0Zm2.6-.1c-.2.2-.3.1-.4-.1h.4Zm4 .1h-1.4c-.3-.1-.2-.6-.9-.3l.5.1c-.2.4-.6.3-1-.2v.3h-.6l.3-.3c-1.6.1-1.5-.4-2 .4l-.1-.3-.6.4c-.1-.6-.2-.4-.8-.5.6-.4 6.3-.3 6.7-.2v.1l-.5.2c.1.2.5-.1.5.3Zm1.3-.6v.5c-.3-.4-.7-.3-1-.3.1-.3 0-.2 1-.2Zm15 .8.3-.6h1.3l-.5.6H117Zm-1.1 1-.2.4h-.4l.6-.3Zm0-.3c0 .3-.2.2-.4 0h.5Zm.8-1.7h.2-.2Zm-12.6 1Zm.2-.3Zm4.1.5c-.1 0 0-.1 0 0Zm3.3 0c-.1.1-.2 0 0 0Zm3.1.5Zm0-.4Zm0-.5c-.9 0-.6.6-1.3.7.4-.8 0-.9-.1-.8-.6.5-1.1 0-1.3 0-.6.2-2.4.3-2.6 0-.2-.3-.4-.2-1 0-.3-.3-.4-.3-.7 0-.2.2-.8 0-1.2.3v-.3c-.4-.2-.8.2-1.1.1l-.3-.3v.5c-1.7-1.3-1.2.2-3-.7.3-.4 5 0 5.2 0h9.6l-.4.6h-1.9Zm2.3 1.7h-1.2l.3-.5h1.2l-.3.5Zm-15.5-3.6h2.5v-.4c1.5 0 1.6 0 1.7.2l.3-.2h.2c0 .4.3.2.5.4-.1-.4 0-.4.3-.4.5.1.5.6 1 .2h-.3V37a103.2 103.2 0 0 1 10.2.3l-.6 1v-.2c-.4-.3-.4 0-1.5 0-2.6-.1-2.2-.2-2.8-.3.1.3.2.3 3.6.4-.3.2-.8.6-1 .4-.3-.4-1.1.3-1.2-.3-.5.3-17.5 0-18-.2L99 38h.2c-2-.2-2.9.2-2.9-.3 0-.3.3-.3.9-.2l2.2.1c.7.2.9-.3 2.2 0Zm-1.6-5.1h-.5.5Zm.6-2.2c-.2.2-.4.1-.6 0h.6Zm0 2.8h-.1c0-.1 0-.1 0 0Zm.5 1.4c-.5.3-1 .2-1.5.1.2-.3.4-.2.6-.2 1 .2.3-.1.9.1Zm.8-2c-.4.2-.7.1-1 0h1Zm-.7.5.7-.1c-.2.3-.4.1-.7.2v-.1Zm-.2 1.9.2-.1-.1.1Zm.2.8h-.5c.2-.2.2-.2.5 0Zm1.8-.9c-.3-.2-.5-.2-.7 0h-1.1c0-.3.1-.4.3-.4 1.2 0 1.4 0 1.5.4Zm-.3-2.4v.1h-.2.2Zm.3 4.8v.1h-.2.2Zm0-1.7c0 .1 0 .1 0 0Zm.3-2.6v.1l-.3.1a1 1 0 0 1 0-.1h.3Zm.8 2.9Zm.6-.4Zm.3.6a1.3 1.3 0 0 1-.1-.1v-.1c.2.1.2 0 0 .2Zm.5.7h-.1Zm0-1.3c.5-.1.6 0 .4.6l-.4-.1.2-.3-.3-.2Zm2.2 1.3v-.1c.1.1.1.1 0 0Zm-.9-1c-.1.4-1-.4.7-.3 1.3 0 1.3 0 1.4.2l-.5.2c-1.2.2-1.3-.5-1.6 0Zm3.1.3c-.1.1-.3 0-.4 0h.4Zm1.4.6c-.1.1 0 .1-.2 0 .1-.1.1-.1.2 0Zm.4-.5.1-.4c.1.3 0 .3 0 .4Zm-.2-.4v.4h.2c-.3.2-.5.1-.6 0-.3-.4-.3-.2-1.1-.5l-.5.4a2 2 0 0 1-.6-.4c.7 0 0-.4 1.8-.1 1 .1 1.3-.3 1.7-.1-.1.2-.1.2-.9.3Zm.8 1v-.2.2Zm-.1-.5h.2-.2Zm.8.6Zm2.4 0c-.2.2-.3.1-.5 0 .2-.3.3 0 .5 0Zm.6 0v.1a3.2 3.2 0 0 0-.2 0v-.1h.2Zm2.3.2h-.1l.2-.1Zm.6.1h-.4l.1-.2c.2 0 .2 0 .3.2Zm.8-2.4-1.1 1.8a.8.8 0 0 1-.2-.2l-.6.1v-.1l.3-.4c-.4-.2-.5.3-.8.2l.2.2c-.2.5-.7.3-1 .6l-.1-.2.3-.1v-.1c-3-.3 0-.5-2.7-.5l.4.3c-.4.2-.5 0-.7-.3-.2.4-.4.4-.8.2l.3-.2-.7-.2c.4-1 2.5.1 2.6-.7-1.4.3-.8-.2-1.4-.2-3.8-.2-2.4.5-3.4-.2-.4.4-.4.6-.9.3-.7-.5-5.4.2-6.2-.4.8-.5 8.8-.2 16.5.1Zm-15-2.2h-1 1Zm-.7-6.3h.3-.3Zm1.8 4.1c-.4.1-.7.2-1 0h1Zm.4 3.1h-.3.3Zm-.2-.4.3-.2.2.3s-1.7.2-2.6-.2c.5 0 1 0 1.7-.2l-.6-.2h.9v.5Zm.6-.5-.4.2.4-.2Zm.3.3h-.2.2Zm1.1.3h-.6c.2-.1.4-.2.6 0Zm-.1-.7c1-.1.5-.7 1.3.2l-.3.5c-.4 0-.5 0-.6-.5h-1.1c.2-.2.5-.1.7-.2Zm.1-2h.2-.2Zm2.8 3.5Zm1 0s-.3 0 0-.3v.2Zm-1.9-1a8.6 8.6 0 0 0-.2-.3c.1-.1.3-.4.6-.5 2 0 2 0 2.1.3-.4-.2-.7 0-1 0l.4.2-.1.4h.6v.2c-1 0-1.9-.2-3.3.2.1-.6.3-.6 1-.6Zm-.4-1.4h-.2.2Zm3.5-1.1h-.2.2Zm-.4 3.5h-.5c.2 0 .3-.2.5 0Zm-.2-1.2.5-.6.3.4-.8.2Zm1.6 1.2c-.1.1-.1 0-.2 0h.2Zm1-1-1.4-.2.7-.2-.2-.3.8.1-.1.3h.1c1.6 0 0 .4 1.5.4l.1.3c-1 0-2.2-.2-3.3-.1 1.7-.7 1.2.2 1.7-.4Zm-1.1-1.7h-.6.6Zm0-2.8Zm.6 2c-.1.2-.1 0 0 0Zm1.1 0Zm.3 1.9h-.2.2Zm.8 1.7a5.9 5.9 0 0 1-2.3 0h2.3Zm.3-3.7c-.3.5-.5.5-.8.1l.8-.1Zm.8 2.2v.3h-.8c.2-.2.5-.4.8-.3Zm-.1-.8h-.2.2Zm.1-1.1h.2v.2a2.6 2.6 0 0 1-.2 0v-.2Zm.5 3.3v-.1h.6-.6Zm.9.2c-.6.2-1 0-1.6 0a5.5 5.5 0 0 1 1.6 0Zm-1-1c.7.3 1-.3 1.1.3-1.2.4-2.2-.1-2.4-.2.2-.3.7-.3 1.3 0Zm.2 0h-.2.2Zm1-.5-.3.1.2.1c0 .2-.7.3-1-.1.2-.2.7-.2 1.2 0Zm-.8-.9Zm.7-1.1c-.1.3-.5.3-.9 0 .3-.1.6-.3 1 0Zm.8 1v.2h-.9l1-.1Zm1 1h.2-1.1v.1l.4.1v.1c-1.4 0-1-.4.5-.3Zm-.3-1.8Zm.6 0h-.2.2Zm.4 1-.3.2v-.1h.3Zm-.1 1.1.1-.2c.4-.2.5.4-.1.2Zm1.3-1.5v.1h-.6.6Zm-.6.6c.1-.1.1-.1.2 0h-.2Zm-1.4 1c.1-.2.3-.2.4 0h-.4Zm-1 1.1h-.2.2Zm.7 0a.6.6 0 0 0 0 .1Zm.9.1h-.1c0-.1 0-.1 0 0Zm2.6-.2.2.4-2.1-.1c.7-.4 1.2.2 1.9-.3Zm-3 16.9v-.1l.3-.5-.3.6ZM85.3 97.3c-.3-.5-.2-.2 1.5-2.9l.6-.9-2.1 3.8Zm-2.7 4.7c.9.5.6-1 1.2-.9-3.9 7.2-4 7.5-3.5 7.7.3.1.6-1.5 1.1-1.9.4.5-1 2.2-2.4 4.5a16.7 16.7 0 0 1-2.6-1.9l.7-1.3-.4.2c.4-.8.6-1 .9-1.3a1 1 0 0 0 0 .1l-.1.4c.4-.3.4-.3.9 0A59 59 0 0 0 84 99h-.4c.2-.5 1-1.3 1.4-1.4-1.5 3.8-.6 1.5-2.5 4.4Zm-1.5 10.3.3-.2-.1.3H81Zm-12-11.7c.5.3 1 .5 1.3 1.1-.7.1-1-.1-1.3-1.1Zm7.3 2c-.8 1-1.8 2.3-2.9 4l-.3-.4v-.1l.2-.4h-.1l-.3.3-.2-.3c.2-.4.5-.9 1-1.4.4.4.5.4.8 0l1.2-1.6h.6Zm.3-1.3h.6l-.6.8h-.5l.5-.8Zm.8-.4H77l1.1-1.7a6.6 6.6 0 0 1-.6 1.7Zm-2.1 7.7 1-.6-.7 1a13 13 0 0 1-.3-.3Zm-.2-.2-.3-.2.2-.3v.5Zm-1.3-5.6v.2c-.3-.2-1 1-1.7 2-1-1.6-1.7-2.8-1.5-3l-.3-.3c1-.2.6-.1 2.1.6-.5 0-.6.3-.6.5h2Zm-11.3 7c-.4-.1-.5-.4-.3-.7l.5.7h-.2Zm-4.2-10.5L58 99c-.4.3-.1.3 0 .5-1 .1-1.4-1.9-1.4-2-.6-.2-.8-.7-1.2-1.8.5-.5.5-.7.2-1 .8-.2 1.2 1 3.1 3.8.2.3.2.3-.3.8Zm-1 1.5.4-.3v.2h-.3Zm-4.7-9.9c-.3-.3-1-1.5-.9-2a4 4 0 0 1 1.2 2h-.4ZM38.3 60l.1.2h-.1V60Zm10.2 21.5-.1.1a6 6 0 0 1-1.6-1.7l-.2.2c-.4-.4-.7-.9-.7-1.5 0-.3-.1-.6-.3-.8-.5-1-4-4.4-4-5 .4-2.7-2-3.7-2.8-4-.8-3-3.1-4.5-2.2-5.3 2.2 3.4.7 2.7 2.5 4 0-1.1-3.1-4-2-4.7.5-.3.3.1 1.6 1.3.1-.5-.2-.7.1-1.2l.3-.1v-1c.8-1.6-1.4-2.3-1.8-3.6-.8.5-1.2-.9-2-2.6-.1-.5-.2.2-.6-.7-.1-.2-.7-.1-.2-.7v.2l.6-1.1.2-.1s5.7 8.5 7.5 12.2h-.2l.2.1c.4.8.6 1.3.5 1.5-.4.2-.5 0-.8 0-.2.2 0 .2 0 .2.7.3.7 1 1.6 3.4a31.6 31.6 0 0 0-.5-.4c2.3 3-.3 2.7 1.8 4h.2c-.3-.7-.5-.8.2-2 .3.8 1.3 2.5 2 5.8-1.2-.5-1.8-1.3-1.7-2.6H46c0 1.8-1 1.2 1.9 3.2l1.1 3.3c-.4-.3-.5-.8-.8-1.1l.3.7Zm-8.8-11.3c.5.4 1 .7 1 1.5l-1-1.5Zm-1.2-1.5.2-.1v.2l-.2-.1Zm3.6 8-.3-.4h-.1v.3c.4 0 0 .4 0 .6v.4c-1-1.6 0-.1-1.4-1.6l-.2.3-.5-.3c.6-.8-.4-.4-1.5-3.1.6 0 .4.6.9.8-.7-1-.8-.8-.1-1.5-.4-.6-.6-.6.2-1h-.6c-1-3-2.4-5.1-2.3-6C37 66 37.5 67 38 68l-1-.4c1 .7 4.3 4.4 3.9 5.6-.5 1.3.7.7.7 1.6l-.5-.2c.3.7.8 1.2 1.2 1.8l-.2.1Zm-4.3-5.4-.5-.4-.2-.4.2-.1c.3 0 0 .7.8.5l-.3.4Zm-1.1-.7.1-.1c.2.3.2.5.5.4v.8l-.6-1.1Zm-1.5-11.4.2.4c-.4 0-.4 0-.2-.4Zm-.5-.3.2-.2.2.2-.2.2-.2-.2Zm0 .2-.4-.4h.1l.3.4Zm-.9-1-.2.2s-.2-.1 0-.3c.2-.2.3-.4.6-.4l-.2.3.6.3c-.5.2-.5 0-.8 0Zm.4 1.8v-.2.1Zm-.4-1.1-.1-.1.1-.1.1.1v.1Zm-.3.6v-.5l.1.4Zm-.3-1L32 55.5c.5.1.3.1 1.3 2.1-.3.3 0 .4-.2.8Zm-1.4-11.8-.2-.3h.2l.1.2h-.1Zm0 1.2-.1-.2h.2v.2Zm-.4-.4.1-.3h.3l-.2.3h-.2Zm-2.9-1.1h.2l-.1.2v-.2Zm0-.3v.1Zm.7-.5c.3 0 .5-.2.8 0-.4.3-.8.3-1.1.3l-.2-.4.5.1Zm2.4-.2c0 .3-.2.4-.4.4h-.4l-.3-.2c.6 0 .3 0 1.1-.2Zm-.2-.3c-.2.2-.2 0-.3 0h.3Zm-2.6-1.3s0-.1.2 0h-.2Zm-1.6-.6Zm2.4-1.1h-.2a9.9 9.9 0 0 0-.7-.4c.4 0 0 0 1 .4Zm.3-.4c0 .1 0 .2-.2 0 .1 0 0-.1.2 0Zm.5.3c0-.2 0-.1 0 0Zm5.5-3.3h-.1a.6.6 0 0 1 .1 0Zm2.7 5h-.3c.2-.2.1-.2.3 0Zm-.2-1h-.2v-.2h.2v.2Zm-.7 2.3c.1 0 .3 0 .4.2h-.4a.5.5 0 0 1 0-.2Zm-4 12.6v.4h-.2v-.3h.2Zm-.1-.3-.2-.2h.1l.2.1-.1.1ZM40.7 46h-.1c0-.1 0-.1.1 0Zm-.5-1.1a.9.9 0 0 1-.1 0s0-.1 0 0Zm-17.3-8 .3.2-.6.2-.2-.4h.5Zm19.8-7.2h.2-.2Zm-.8.2c.2-.3.2-.3.5-.1-.2 0-.3.3-.5.1Zm82.4 1.9c-.2.1-.4.3-.7.1.3-.2.5 0 .7-.1Zm1.8-.3v.1h-.2v-.1h.2Zm1.5.1h-.1.1ZM62 110v-.2h.1v.2ZM28.7 49l-.3-.3c.3 0 .3 0 .3.2Zm-1.7-.4v-.3h.2v.3Zm-11.3-9.2c.1.3.4.5.6.5l.4.6c-.1.2-.4 0-.4.3 0 0 3.1 0 3.2-.6l-.5.1c-.4.2-.7-.2-1-.1 0-.3.1-.4.3-.4 1.8-.1 1.5-.1 2.6.2-.4.6-.6 0-1 .5-.3.5-.4.4-.7.5.9 0 1-.2 1.4.1-.4 0-.6.4-1 .5.4.4.4.4 2.4.2a57.6 57.6 0 0 1 2.5 0h.7c.1 0 .2 0 .3.2l.2-.3h2.1l.5-.1c.2.1.2.2.2.4l-.3-.2v.1l-.5.2-2 .2a1.4 1.4 0 0 0-.6-.3l.3.3-3.5.2c-2 .2-2.1.6-2.5 0 .6 0 .7 0 .8-.2-2.1 0-1.8 0-2.6.4v.2c-.4 0-1 0-1.3.2 0 .3.2.3.4.3.5-.1 1 .2 1.1.4l-.3.3c1.5.5 1 1.2-.2 1.2.6.3.4.2 1.7-.3 1.5-.5 2 .2 2.3-.4.3.2.6.3.8.1.4-.3.7-.2 1.3-.3v.1l1.1-.3c.3 0 .5.4.9-.1v.2c1-1.3.5.4 1.7-.6l.4.1.2.5.1-.1v-.3h.4c.3.2.5-.3 1.4.3 0-.5 0-.3-.2-.7h.8l-.4.4.8.4v-.4a8 8 0 0 1 .6.6v.4l-.4.2c-.2-.3-.4-.4-.5-.4 0-.3-.3-.3-.6-.3l.4.3a2 2 0 0 0-.4.2l-1-.6.8.7a5 5 0 0 1-.8.3l-.1-.2c-.5.4 0 .4-.1.7-.6 0-.4-.4-.8-.5.8 2.1.5.3 1.5 3.7 0 .2.1.2.5 0l-.6-1.4h.2l.3.1c.1-.4-.2-.4-.5-.4l.3-.2.3.1a4.2 4.2 0 0 0-.1-.2c.2 0 .4.1.6-.2-1.1 0-1.2 0-1.1.5-.3-.1-.5-.2-.2-.8l.2.4.1-.1v-.3l1.8-.2v.1c.1.1.2-.6.3.5 0 .7-.4.3.5 1 .4 1.1.2.6.8 1.6l-.2.1c-.7-.7-.7-1.1-1.4-1.3.2.7.9 1 1 1.7v.1l-.3-.1-.2.2c-1.6-2.5-1.5-2.5-2-2.3 0 .5.7.6.7 1.2 0 .2 1 .5.2 1-.3-.3-.3-.8-.7-1l-.2.1.7 1.2c-.6.2-.9-1.5-1.5-1.5.4-.7-1-.8-1-1.4l-.2-.1c-1.5-2.1-.7-1-1.7-1.1-.2.5.7 0 .7.4-.1.2-.6.3-.4.5h-.6l.3.7.3-.4c.8 1.3.3.6.8 1.9h-.2v-.3l-.3.3.5 1.5-1-1.4c-.7 0-.4-1-.8-.8l-.3-.5c-.2.4 0 .5.2.6l-.3.4-.5-.8c2 5.6 13.8 28.9 15.3 28V76c.2.3.6.5.6 1l.1.2c-.6.3 1 1.6 1.3 1.8 0 0 3.3 5 4 5v-.2c3.1.6 3.4 3.2 4.9 5.3 0 0 1.7.4 1.5 1.3l.5.8-.5-.3c0 .1 4.2 6.5 4.7 8h-.1v.4h.4c-.1.2-.1.2.1.3l-.1-.2.6.5-.7.2-.1-.3-.9.3c.1.5 1.5 0 1.6.7.2 1.2 0 .8 1 2 .5 0 1.2-.3 1.3.2.2.6 1.3.8.4 2.6-.4.6.2.7 1.1.9l-.1.3-.4-.2-.1.1.8 1h.2c-.1-.2-.3-.3.1-.7 1 .1 1 0 .8 1.6l-.1.1-.2-.3-.2.7c-1.3-1-.4-.5-1-1-.3.4-.2.3 1.2 2.7l-.1-.5c.7 0 .7 2 1.5 1.3 0-.3-.5-.5.2-1-.2-.4-.7-.5-.6-1l.7-.2c.8-.3 2 4.5.8 5.9-.6.6-.5 1 0 1.1.7.1 1.5-.4 1.8.2.3.8.5 1.6-.6 2.7-1.2 1.1 5.3 4.3 7.5 1.6.5-.6.3-.3 1-.9l-1 1.1c.4.1 1.3-.8 2.4-2.1l2.1-1.7-1.7 2c.6-.4 1-1 1.5-1.4a26.1 26.1 0 0 1-4.5 5l.8.4c.8 1.3 3-2.6 5-6 .7.3 2 .5 5 .1.5 0 1-.6 1-.7 1.1-3.3-2-1.8-2.3-2.6l.6-.3.4-.5c.4-.5-.6-.7-.9-.7h-.2c.8-1 1.8-2.9 2.1-3.2 1 1 .5.3 3.7-4.8 0 0 0-1.2 2.8-4.2l-.2.7h.1c.8-.6 6-10 6.6-11l.3.3s25-37.4 34.2-53.2h.2-.2c.4-.6.8-1.2 1-1.8h.3a.4.4 0 0 0-.2 0 58 58 0 0 0 1.7-3.2l-2 3c-1.1-.3-5-.5-5.6-.9-.1.3-.2.3-2.2 0 0-.2 0-.2.3-.1.4.2.8 0 1.8-.2-.1 0-.4-.5-.6-.3-.3.5-3-.7-3.3 0-2.4-.6-3.4 0-3.6-.7h.8v.3l.2-.3c1.4.1 3.7.2 4 .1-.8-.1-1.6 0-2.4-.5h.6c-.5-.2-.7-.2-.6-.4l1 .2-.5.1 3.2.2c-.4-.2-1.4-.3-1.8-.7l-.2.2.2-.2v-.2l.4.1c2.7-.3 3 .3 3.4-.3-.6-.7-6-.8-6.3-.8 1.1 0 .9-.4 2.6-.1 1.3.2 1 .2 1.3 0-.6-.1-4.3-.4-5.2-.8-.5.5-.3-.2-.7 0-.2 0-.7-.1-1-.4h.2c0-.5-.5-.1-.9-.4v-.2l-3.8-.5.3-.1-.4-.1V28h2.5s-4-.3-6.6-.8l.3-.1c-2.9-.2-2.8-.2-2.8-.4l-.4.1h.4v-.2c-3.6-.7-1-.7-4.2-.8a1 1 0 0 0-1.2-.4c-.5.2-19 2.9-24 2l.1-.2c-.6 0-.5.4-1.2.3-.5 0-.5.3-1-.1-1.3.3-2 0-2.6.2-.4.1-.8 0-1.2-.3l-.4.3c-1-.3-1.2.1-1.1-.3l.3-.2c-.4 0-.8-.3-1.2.3-.2-.2-1-.2-1.3 0h.4v.1c-1.9.3-2.3-.5-7.6.4-3.9.6-.3.2-6 .7-6.8.7-10.4.2-10.8.8-.1-.1-.3-.2-.5 0h.3c-.4.2-.7.3-1.1.2l.2-.2h-2.8c.1.2.4 0 .4.4h.2c.3.1.4.4 1.1.3l1.4-.2v.1c-1.7.3-.8.2-1 .8l-7.2 1a5.5 5.5 0 0 0-3.1.2c-.4-.2-.6 0-.9.3-.3.3-2 0-2.3.3a1 1 0 0 1-.5.2c-1.2-1.6-2.3-4.3-3-4.2 0 .8 1 3 1.8 4.3h-.2.3c.2.5.5.8.7 1l-6.8.7-.2-.6.1.6H21a23.7 23.7 0 0 0-5.2-3.4c0 .5.1 1.1.8.9l-.2.5.4-.2v.1c.7.2 1.2 1.6 1.4 1.7l.3-.4-.1.8.5-.4-.9-1c1.3.7 2 1.4 2.7 2a3 3 0 0 1-.8.2c-.6-.4-.8-.8-1-1 0 .4 0 .8.3 1l-.8.1-.7-.5c0 .2-.2.4.2.4l.2.1-.6.1c.2.5.6 0 .8.3v.4c1 0 .5.2.8.3.3 0 .6-.2 1 0-.3.2-.7 0-.9.5l2.2-.2.2.4c-1.9 0-4.5 0-6.6 1.6v.3c.2 0 .5-.1.7.1"/>
  </g>
  <path fill="#231f20" d="M98.1 46.2c.4 0 .6.3 1 .1.8-.4 1.3 0 1.7 0 6.8 0 7.7.2 8.4-1-1.3.1-5.5-.2-5.9-.2 0 .2-9.5.5-9.6.6 3 .5-1.2.4 4.4.5M119 35.4c-1.5-.4-1.8.2-2.1-.4l-1.2-.1-.1.3.4.4c.5-.3 1.5 0 3-.2m9 .1h-.4c0 .3-.2.2-.6.2l.2-.4a1.9 1.9 0 0 0-.6 1l.4-.5c.8.3 1.6.3 2.5.2-1.1-.3-1.4 0-1.7-.3l.2-.2M18.2 41l-1.8.2c0 .9 1.1 0 1.9-.2M127 33.3l4.2.3-.2.3c.4 0 .2.2 1-1.3v-.3l-.8 1.3a17.9 17.9 0 0 0-4.2-.3m-20.6 10.1c-1.5-.4-2 .3-2.7 0 .5.2 2.4.2 2.7 0M73 27.5c.3.3.3 0 .5-.2h.2v-.2h-2.2l.8.3s.3-.3.7.1m3.3-.3c-1.3.2-1.3.2-1.3-.2h-.7c.6.8 1.1.2 1.7.5l.3-.3m48.3 8.5v.1h1.7c-.2-.1-.4-.2-.5-.1-.8 0-.8-.2-1.2 0m5.3-1.4h1c-.4-.2-.8-.2-1.7-.2.2.3.3.4.7.2m-2.2-.2 1.1.3.4-.3h-1.5M100 43.2c-.2 0-.5-.1-.7.1l.3.3.4-.4m19.1-4.8h1.2c-.5-.3-.9-.3-1.2 0M105 38c.3 0 .7.1 1.1-.1H105v.1m-80.1-4 1.3-.1c-.5-.2-.9-.2-1.3.1m103.7 2.4c.3.2.4.1.8 0-.3-.1-.5-.2-.8 0m2.7-1.8h1l-1-.2v.2m-47.8 7.7c-.3-.4-.3-.4-.6-.3.2.2.3.4.6.3M17.8 45l-.6-.2c.1.4.2.4.6.2m-1.9-.7"/>
  <path fill="#231f20" d="M16 44.3c.2.3.6 0 .9 0-.5-.3-.5-.1-1 0m67.5-1.2c.3-.1.6 0 .8-.2-.3-.2-.5-.2-.8.2m32.8-7c.2 0 .3.1.5-.2h-.5v.2m-8.5 1.9h-.8c.3.2.6.1.8 0m-.5 5.3c-.2 0-.2-.4-.5-.2.1.3.1.3.5.2m19-3c-.2-.2-.4 0-.6 0h.1c-.3.3-.5.5-.6.9l.7-.8h.4M18.5 36.7c-.2 0-.2.2-.1.4 0 0 .4 0 .1-.4m107-3.6c.3 0 .6.2.8 0h-.7m-.4-.3h-.8.8M111 38h-.5c.3.2.3.2.5 0m12.6-2.2.6-.1c-.4-.1-.4-.1-.6.1m-18.8 1.8.4-.2c-.3 0-.3 0-.5.2m22.6-1.3c.1.2.3.2.6.4-.1-.4-.4-.3-.6-.4m-34.7 4.5-.3.3c.3 0 .3 0 .3-.3m17.6 0h-.7c.2.2.4.1.7 0m-5.7-2.5V38h-.2v.1h.2m-1 0V38h-.8.8m18 .5.4.2c0-.3 0-.3-.4-.2m-23.4 5c0-.2 0-.3-.2 0h.2m-80.1 1h.4c-.2-.2-.3-.1-.4 0M84 42c0-.1 0 0-.4 0v.1l.4-.1m20.7-1.1-.4.1c.1.1.3.1.4-.1m-27.3-14h-.3l.2.4.1-.4M101.6 38h.4c0-.1-.2-.3-.4 0m-86.1 6c.1.2.3.2.4.2l-.4-.2m65-17.2-.6-.2c.2.2.2.2.6.2M20.9 42.3a1 1 0 0 1 0-.1l-.7.1h.7M126.6 33h.4c-.1-.2-.3-.1-.4 0m-14.7 5h-.2l.1.2.1-.1m4.1 1.1-.2.1h.3m-88.5-5.5h-.3.3m81.2 9h-.4v.1h.3M125 32h-.3s.2.2.3 0m-17.5 7.2v-.3c-.1 0-.2.2 0 .3m-77.7 5.1a1.7 1.7 0 0 0-.2 0l.1.1m83-6.5h.4-.3m21-2.4h-.3.3m-14.5-6.1h-.2.2m8 3.6h-.3.3m-.3 3.3.2-.1h-.2v.1M107 38h-.2.2m-87.7 4h.1-.1m91.8-9c.2 0 .3-.1.5-.3h-1c.2 0 .4-.1.5.2m-.6-.6c.3.2.6 0 .9 0a1 1 0 0 0-1 0m-.2.4h-.1l.1.1M44 43.1c0-.1 0 0 0 0m1.6 0V43v.2m0 0"/>
  <g clip-path="url(#d)">
    <g clip-path="url(#e)" mask="url(#f)">
      <g clip-path="url(#g)" transform="translate(111 117)">
        <g clip-path="url(#h)">
          <g clip-path="url(#i)">
            <path d="M-144-150H72V66h-216z"/>
          </g>
        </g>
      </g>
    </g>
  </g>
  <g clip-path="url(#j)">
    <g clip-path="url(#k)" mask="url(#l)">
      <g clip-path="url(#m)" transform="translate(94 87)">
        <g clip-path="url(#n)">
          <g clip-path="url(#o)">
            <path d="M-127-120H89V96h-216z"/>
          </g>
        </g>
      </g>
    </g>
  </g>
</svg>