<svg xmlns="http://www.w3.org/2000/svg" width="200" viewBox="0 0 150 150" height="200" version="1.0"><defs><clipPath id="b"><path d="M15 25.05h120V124H15Zm0 0"/></clipPath><clipPath id="c"><path d="M111.79 117h.35v.26h-.35Zm0 0"/></clipPath><clipPath id="d"><path d="M112.13 117.15c-.68.3-.08-.15-.08-.15"/></clipPath><clipPath id="g"><path d="M.79 0h.35v.26H.8Zm0 0"/></clipPath><clipPath id="h"><path d="M1.13.15C.44.45 1.04 0 1.04 0"/></clipPath><clipPath id="f"><path d="M0 0h2v1H0z"/></clipPath><clipPath id="i"><path d="M94.61 87.58h.36v.28h-.36Zm0 0"/></clipPath><clipPath id="j"><path d="M94.95 87.75c-.68.3-.08-.15-.08-.15"/></clipPath><clipPath id="m"><path d="M.61.6h.36v.26H.61Zm0 0"/></clipPath><clipPath id="n"><path d="M.95.75C.27 1.05.88.6.88.6"/></clipPath><clipPath id="l"><path d="M0 0h1v1H0z"/></clipPath><mask id="e"><g filter="url(#a)"><path fill-opacity=".11" d="M-15-15h180v180H-15z"/></g></mask><mask id="k"><g filter="url(#a)"><path fill-opacity=".11" d="M-15-15h180v180H-15z"/></g></mask><filter x="0%" y="0%" width="100%" height="100%" id="a"><feColorMatrix values="0 0 0 0 1 0 0 0 0 1 0 0 0 0 1 0 0 0 1 0" color-interpolation-filters="sRGB"/></filter></defs><path fill="#231f20" d="m120.5 46.1-.08.35.34-.45-.27.1M121.4 45.18c-.17.2-.39.48-.64.82.41-.2.65-.47.65-.82M106.55 63.72c-.05.02-.14.1-.12.15.05.15-.29.86-1.01 1.49.23.23-.01.27-.13.3-.6.15-.16.9-.92 1.34l.24.24c-.18.32-.43.6-.47.98 0 0 4.99-8.12 5.22-8.55-.54.35-2.13 3.76-2.8 4.05M114.17 51.93c-.76.75-1.78 2.27-1.69 2.41.14-.13 3.45-4.5 3.68-5.36a10 10 0 0 0-1.99 2.95M100.17 75.14c.1-.06 3.11-3.68 2.82-4-.28.17-2.8 3.93-2.82 4M116.36 48.84l.14-.32.2.16c-.18-.54 1.71-2.61 1.85-3.5-.12.15-2.43 3.35-2.2 3.66M123.75 42.76l.16.35c.54-.52.54-.52.34-.84-.07.16-.05.4-.33.4-.03-.53.46-.79.59-1.21l-.14-.08-1.18 1.84.06.05.5-.51M116.77 44.75l-.42-.22c-.14.17-.28.35-.44.52-.24.29.17.76-.3.66l.2.33.96-1.29M79.05 108.08c.3-.01 1.2-1.6 1.34-1.9-.65.44-1.37 1.52-1.34 1.9M117.77 43l-.14.23c-.03-.2-.02-.2.14-.23Zm0 0h.02c.26-.07.1-.3.12-.42l-.35-.04c-.08.27-.14.55-.23.82-.16.48-.45.1-.4.77.35-.1.79-.7.85-1.13M106.56 66.85c-.64.78-1.44 1.44-1.92 2.34.77-.68 1.34-1.51 1.92-2.34M124.77 44.75l.03-.3c-.64.32-.64 1.02-1.05 1.48.7.03.4-.86 1.02-1.18M119.93 43.23l-.09-.05c-.52.46-.75 1.11-1.1 1.68a.9.9 0 0 0 .1.07l1.09-1.7M106.3 62.95c-.5-.38-.87.61-.84.76.32-.22.69-.36.84-.76M123.21 47.45c.33-.09.34-.24 1-1.4a.68.68 0 0 0-.08-.03l-.92 1.43M105.08 67.98c-.35.25-.56.7-.78 1.18l.07.03.8-1.1-.1-.11M103.21 68.64c-.2.3-.4.61-.58.92.36-.2.59-.47.58-.92M105.4 63.9l-.4.24.07.4c.26-.16.38-.34.33-.64M115.94 43.07c.32-.3.45-.53.45-.75-.2.16-.44.54-.45.75M126.37 41.9l-.77 1.2c.3-.03.73-.83.77-1.2M125.48 43.56a1.51 1.51 0 0 1-.09-.07c-.31.15-.36.54-.64.72l.1.1.63-.75M102.54 69.88a.18.18 0 0 0-.05-.04l-.4.14-.1.44.06.03c.16-.2.33-.38.5-.57M127.74 39.62c-.17.22-.46.37-.47.7.22-.2.47-.37.47-.7M125.14 44.63c-.17.01-.14.3-.37.12l-.06.48c.33-.06.15-.46.43-.6M121.3 44.45l-.5.78c.34-.21.34-.21.5-.78M127.18 40.58l-.4.62.28-.03c-.21-.24.17-.31.12-.6M123.35 46.87l-.42.49c.3-.07.4-.24.42-.49M125.62 43.72l.05.02.38-.6a.18.18 0 0 1-.05-.02l-.38.6M107.1 66.05a.5.5 0 0 0 .38-.31c-.24-.02-.3.16-.39.31M116.42 43.97l.19-.32-.12-.05-.16.32.1.05M104.35 67.02l.02-.02-.02.02M104.13 67.5l.22-.48-.32.42.1.06M126.19 38.9l.06-.25c-.18.18-.18.19-.06.25M126.19 38.9v.01l-.01.02.02-.02-.01-.01M72.38 99.8l-.05-.16.13-.06c-.32-.2-.63-.4-.9-.66 0 .57.41 1.01.81.88M72.46 99.58h.02v-.01h-.02M66.58 84.2l-.14.07c.04 1 .46 7.34 1.4 8.18.22-.31-1.24-8.16-1.26-8.25M58.95 104V104v.02c.23-.33.07-.48-.08-.61-.14-.12.1-.5-.4-.42l.43.98-.73.17c-.5 1.28.44 1.56 1.21 1.92-.28-.94-.95-.62-.43-2.05M66.85 93.35l.17-.1c-.96-2.2.33.21-3.3-4.2-.04 1.66 2.8 2.63 3.13 4.3M68.93 94.46c.77 1 .38.95 1.15 1.36l.12-.1c-.73-.93-1.72-1.7-1.97-2.95l-.2.1c-.14 1.77.59 1.18.9 1.6M25.41 44.39c.57.66.06 1.45.88 1.07 0-.43-.4-.98-.88-1.07M28.52 31.06c-.13-.48-.44-.84-1.07-.98.5.8.27.49.88 1.12l.19-.14M57.07 104.84c.23.42.42.86.8 1.19l.13-.08-.78-1.22-.15.1M51.26 94.65c.38.33.22.98.84 1.1-.58-1.14-.52-1.1-.84-1.1M54.94 101.4l.65 1.02.12-.08-.65-1.01-.12.08M56.48 103.85c.07-.38-.18-.58-.38-.91-.06.48.1.73.38.91M60.3 107.66c.38.18.2.07.71.43-.2-.36-.38-.8-.7-.43M55.88 101.08l-.61-.96c.2.33.14.82.61.96M71.34 97.21c-.3-.06-.03-.14-.97.25.18.17.57.03.97-.25M27.91 46.8l-.42-.84-.12.08.5.78.04-.02M17.86 36.52l-.09-.08c0 .05.02.09.09.08M17.36 36.05l.41.39c0-.17.14-.5-.4-.39M60 106.77l-.15.1c-.05.27.25.3.42.42l.13-.1-.4-.42M50.46 93.34c.06-.1.2-.42-.23-.35l.22.35c-.01.03 0 .02 0 0l.5.52c-.06-.25 0-.6-.49-.52M23.79 46.63l.37.8c.17-.44-.15-.59-.37-.8M30.66 47.38c.12.24.23.43.32.63l.2-.13c-.3-.06-.08-.48-.52-.5M43.7 82.43l-.6-.42c.21.55.21.55.6.42M23.65 47.46l.39.6.05-.02-.38-.6-.06.02M49.75 91.4l-.48-.13c.1.08-.15.5.48.14M27.08 44.04l-.12.07.2.32.13-.07-.21-.32M28.08 47.3a.48.48 0 0 1-.07.03l.35.55.05-.04-.33-.54M26.28 48.37l-.3-.46c-.24.4.2.3.3.46M71.06 101.88l.1.43.2-.1-.2-.4a.53.53 0 0 1-.1.06M22.83 44.57l.25.48.12-.07-.3-.45-.07.04M54.16 98.87l.25.29.13-.1c-.1-.08-.2-.17-.31-.24l-.07.05M55.03 99.78l-.3-.48-.07.05.3.48a.8.8 0 0 0 .07-.05M25.33 46.93l.15-.07-.07-.4-.13.07.05.4M52.66 96.36l-.18-.26c-.16.25-.2.39.18.26M60.16 104.6l-.15.03-.19.46.18-.04.16-.46M28.34 44.74c-.2.14-.27.2-.39.3l.24.2.15-.5M63.16 90.23l.18-.12-.28-.2-.12.1.22.22M24.42 47.63l-.09.04.2.33a.56.56 0 0 1 .09-.06l-.2-.31M44.28 83.93l.21.33.12-.08-.27-.3-.06.05M58.14 106.31l.2.26.13-.09-.22-.24-.1.07"/><path fill="#231f20" d="m58.95 104 .18.28c.07-.19.17-.39-.18-.28M30.13 47.43l-.1.08.23.19.09-.08-.22-.19M27.4 46.94l.12-.07-.08-.26-.11.06.07.27M54.16 98.46l-.24-.16-.08.06.2.2a.93.93 0 0 1 .12-.1M25.92 45.88l.35.23c-.07-.25-.07-.25-.35-.23M15.69 31.27l-.1-.16-.1.05.05.19.15-.08M45 83.98l.13.22.05-.04-.13-.2-.05.02M23.32 45.6l.13.2a.14.14 0 0 1 .05-.02 4.22 4.22 0 0 1-.12-.23l-.06.05M53.17 97.3l.13.26.12-.07-.1-.26-.15.08M48.79 90.7c.03.07.08.13.12.2l.1-.09-.14-.16-.08.06M53.9 99.4l.08.13.09-.06-.12-.11-.05.03M21.35 33.76l-.11-.18-.05.03.11.18a.33.33 0 0 1 .05-.03M27.57 47.23l.2.23c.03-.19.02-.19-.2-.23M18.84 37.28l-.07.04.1.13.11-.09-.14-.08M71.55 98.92l-.35.09c.03.17.17.12.35-.09M25.76 49.07l-.05.02.03.16.09-.05c-.02-.05-.04-.1-.07-.13M41.93 69.54l.14-.1-3.1-5.21-.16.1c.22.63 2.04 4.44 3.12 5.2M41.42 64.43c0 .08.19.07.3.1a.83.83 0 0 1 .09-.06c-.7-1.26-.45-.87-1-1.33-.2.7.65.73.61 1.3M41.26 69.7c.03.1.64 1.89 1.04 1.85a4.31 4.31 0 0 0-1.04-1.84M40.01 62.97c.25-.52-.38-.5-.44-.83-.18.48.3.55.44.83M39.58 63.82l.57.51.1-.1-.21-.47-.46.06M45.92 78.57l.5.77c.03-.26-.04-.7-.5-.77M47.59 79.63l.48.75c-.02-.14-.22-.84-.48-.75M42.66 70.24l-.34-.54c-.24.44.24.35.34.54M36.66 57.67l.18.44.16-.1-.26-.4-.08.06M40.42 62.66c-.3.43.03.51.12.72l-.12-.72M41.89 65.09c.2-.42.2-.42-.25-.26l.25.26M41 65.44l-.2-.12-.17.15c.3.1.22.1.38-.03M40.1 65.43l.32.2.1-.07-.3-.22c-.05.03-.09.06-.12.1M35.55 54.23l.1.44a.73.73 0 0 1 .09-.04l-.08-.45-.11.05M42.17 72.23c.23-.39.23-.39-.03-.37.02.11.02.22.03.37M40.28 67.93h.02-.02M40.28 67.93c-.25-.14-.14-.1-.48-.15.2.2.22.2.48.15M36.95 56.24l.11.18.11-.07-.13-.17-.09.06M43.14 70.94l.29.1.07-.06-.24-.14-.12.1M35.37 54.07l.15-.14-.22-.1c-.16.15-.18.1.07.24M46.44 75.11l-.1-.2c-.05.02-.08.05-.13.09l.15.16.08-.05M46.6 79.85l.11-.3-.3.12.2.18M45.68 74.46l-.1.1.18.09.1-.09a3.74 3.74 0 0 1-.18-.1M42.86 70.46l.12.19a.57.57 0 0 0 .07-.06l-.16-.16a.21.21 0 0 0-.03.03M40.29 67.93v.02-.02M40.3 67.95l.06.32c.13-.2.16-.13-.06-.32M40.4 74.36l-.72-1.12c.12.9.34 1.19.72 1.12M39.16 71.91l.3.23-.32.18c.26.22.26.22.66 0-.17-.18-.2-.45-.64-.41M39.5 74.75l.45.54.12-.12-.43-.52-.15.1M40.14 72.96l.23.36c.15-.36.13-.39-.23-.36M39.04 72.65l.24.3.13-.08-.25-.3-.12.08M39.42 71.36l-.04-.1-.36.24.03.07.37-.21M38.68 70.18l.04.14c.14-.08.1-.02.1-.22l-.14.08M56.86 98.23l.6.54.14-.1-.6-.55-.14.11M45.59 43.24"/><g clip-path="url(#b)"><path fill="#231f20" d="m20.48 38.5-.04.05c-.07-.1-.03-.1.04-.05Zm.64 1.45-.17.04.15-.1.02.06Zm.1 1.1.03.06-.06.05c-.03-.07-.05-.05.03-.1Zm.44-4.05.54-.06.08.33-.06.03-.56-.3Zm-.75-.44a.17.17 0 0 1-.03-.04c.17-.29.42-.12.61-.22l.01.11-.59.15Zm2.9-1.72c-.1.11-.05.12-.18.04.08-.13.03-.11.19-.04Zm0 2.3a.98.98 0 0 1-.02-.11c.12-.13 1.35-.37 1.69-.44.23.5-1.15.5-1.68.55Zm2.01-.56c.1.34.07.38-.12.08a.94.94 0 0 1 .12-.08Zm.3 1.7-.03.01v-.07c.04.01.02 0 .02.05Zm.27-1.8c.18-.2.78-.09.75.26-.1.01-1.18.23-.75-.26Zm.69-.55.01.12-.46.02v-.1l.45-.04Zm-.03 1.83c.06-.05.04-.07.11.04-.09.02-.06.03-.11-.04Zm.49-1.86a.3.3 0 0 1 .05.04c-.07.06-.08.05-.05-.04Zm.3.5c1.32-.04.45.06 1.41-.11h.06l.18.1c-.02.16-.27.38-.53.3-.37-.1-.72.06-1.08.05-.43 0-.3-.35-.03-.35Zm1.83-2.82c.24.02.48.09.7.32l-.48.05a7.94 7.94 0 0 0-.22-.37Zm-.35 0v.01l-.02-.01h.02Zm.2-.45-.09.12-.02-.02-.02.07c-.07.11-.1.17-.16.2a8.88 8.88 0 0 1-.36-.45c.27-.02.5-.01.65.08Zm2.05 2.76c.02 0 .02.02.03.03l-.03.03c-.03-.04-.03-.02 0-.06Zm1.23-.13.06.57c-.23-.12-.43-.11-.52-.43l.46-.14Zm-.1-.31c-.04.07-.01.07-.1.03.04-.08.02-.07.1-.03Zm1.36 3.27a.1.1 0 0 1 .01.05l-.3.02v-.05l.3-.02Zm1.25-6.79.01.07h-.14v-.04c.04 0 .09-.01.13-.03Zm.7 4.86c-.08.05-.05.06-.1-.03.08-.05.06-.05.1.03Zm.08-4.87c.08-.06.08 0 .12.06a.66.66 0 0 1-.12.01s-.01-.06 0-.07Zm.5 5.52c.05.08.05.1-.05.06 0-.02.03-.04.04-.06Zm.09-.95.04.01-.04.05c-.03-.04-.02-.02 0-.06Zm.07 1.56a.2.2 0 0 1-.05.05c-.05-.08-.05-.05.02-.11l.03.06Zm.85.48c-.17.22-.34.12-.5.07.15-.06.29-.2.5-.07Zm-.23-.47c-.08.03-.06.03-.08-.05.09-.02.06-.03.08.05Zm1.02-1.19v.1c-.66.1-.37.07-1.07.14l-.01-.11c.35-.15.71-.22 1.08-.13Zm-.23-.48c.07.02.15.02.23.02v.08l-.24-.02v-.08Zm.39-4.6v.01h-.2l.2-.02Zm-.4 6.62c.2-.2.33-.1.5-.07-.21.12-.21.12-.5.07Zm-.26 2.69h.78c-.29.34-.33.34-.78 0Zm.8 3.87-.27-.05.01-.1c.1 0 .2.03.29.04a.5.5 0 0 1-.02.1Zm.48-1.04c-.17-.04-.36.04-.44-.22.29-.25.3-.25.44.22Zm.86-6.16c-.37.03-.77.37-1.21-.08.47-.1.84-.02 1.21.08Zm.16-.99c-.09.08-.12.12-.16.14-.9.38-.85.42-1.1-.01.42-.1.8-.25 1.26-.13Zm-.63-1.15c-.07.08-.04.07-.12 0h.12Zm1.17 2.23h-.43c.16-.18.16-.18.43 0Zm.2 5.24c-.27 0-.38.04-.34-.06l.33-.04v.1Zm-1.9-.74c.38-.16.73-.1.92.13-.26.1-.6.05-.92-.13Zm2.55.63-.05.68c-1.5.32-1.03-.28-2.08.13-.15-.24-.01-.38.09-.53.14-.23.21-.1 1.15.12.64.14.45-.47.89-.4Zm.83 1.64v.13h-.7l-.01-.05.7-.08ZM41.8 38c.05.1.02.1-.05.04l.05-.04Zm.24 5.44-.1.34-.13-.29.23-.05Zm0-1.19v.05h-.03c0-.05-.01-.04.03-.05Zm.36-4.23-.15.09c-.01 0-.06-.07-.05-.1.05-.15.12-.05.2.01Zm.4-.07c-.04.09-.1.16-.18.3l-.19-.7c.17.06.08-.03.37.4Zm-.32-2.63.02.03-.06-.01.04-.02Zm.15 5.56.08-.09.06.11c-.08.05-.04.06-.14-.02Zm.05 2.23-.06-.07c.12-.12.15-.05.06.07Zm.69-.2.17.52c-.33.29-1.05.14-1.46 0 .94-.23 1.05-.18 1.28-.53Zm-.11-3c.06.09.06.05 0 .13a.5.5 0 0 0-.06-.05l.06-.08Zm.09-2.4.07.03c-.09.1-.06.08-.13.02l.06-.06Zm.3-1.97-.27-.29c.18-.05.18-.05.27.29Zm-.06-5.22.3.45h-.44l.14-.45Zm-.27 10.57.03-.11c.23.1.21.17-.03.1Zm0-2.95c.22-.18.4-.17.68-.1-.25.23-.43.25-.67.1Zm.92.39-.72-.05c.11-.16.1-.05.7-.2.02.1.02.17.02.25Zm.2-3.19v.08l-.08.03c0-.1-.01-.07.08-.1Zm.25 1.14v.07l-.2.02v-.07l.2-.02Zm-.2 2.25.18-.4c.05.24.05.24-.17.4Zm.2 2.2.05.05c-.1.07-.1.03-.05-.06Zm-.52.1v-.08l.23.06-.02.09-.21-.07Zm-.4-.03c.05-.03.02-.06.17.01-.13.1-.1.12-.17 0Zm1.5 2.16c.16-.2.4-.3.69-.21v.29c.39-.09.75-.33 1.15-.07.06.5-1.3.33-1.53.27-.02.06-.02.15-.06.19.1-.11-3.02.49-1.25-.8.73.23.47.15 1 .33Zm-.26-.94c-.06.05-.05.03-.09.03l.05-.05.04.02Zm-.04-4.96.04.1c-.09.02-.06.02-.1-.06l.06-.04Zm.23 3.82c.08-.14.04-.11.17-.05-.1.13-.06.12-.17.05Zm.33.68.02.06c-.14.06-.08.06-.23-.06h.21Zm.01-3.69.02.1-.37.09-.01-.11.36-.08Zm.39.93.01.05-.22.04v-.05l.2-.04Zm.04 1.8h.18l-.02.1-.16-.04v-.07Zm.27-9.58.01.05-.25.09-.01-.1.25-.04Zm.21-.95v.05l-.14.03v-.06l.14-.02Zm.1 8.27c-.06.07-.08.06-.04-.04l.05.04Zm.22 2.26-.05-.04c.07-.07.09-.05.05.04Zm0-3.67-.4.07-.01-.14.4-.01v.08Zm.24-6 .16-.01v.1l-.16-.02v-.07Zm.17 7.37c-.05-.1-.03-.11.05-.05l-.05.05Zm-.11 4.3-.06-.08.09-.07c.05.07.07.04-.03.15Zm.19-1.04h-.2l-.01-.05.2-.01v.06Zm2.3 1.15c-.05.16-.11.29-.16.42-.87.12-1.64.3-1.92-.11l2.09-.3Zm-1.98-.9.12.03c-.06.05-.03.05-.12.01v-.03Zm.26-4.08.04.06c-.1.05-.1.02-.04-.06Zm.2-.9-.19-.1c.17-.04.12-.06.19.1Zm-.17 3.6.07.04a2 2 0 0 1-.06.1c-.06-.08-.06-.05-.01-.13Zm-.01 2.1.25.04-.01.14-.25-.08v-.1Zm1-.68c0 .02 0 .05.02.08a.16.16 0 0 0-.05.03c-.02-.06-.01-.05.02-.1Zm.78-4.46.02.16-.55.07-.02-.12.55-.1Zm-.02-6.77.01.1-.36.04-.01-.1.35-.04Zm.3 5.83.01.13-.43.05c.15-.24.29-.2.42-.18Zm.53 6.25c-.28.1-.28.1-.48-.04.18-.03.32-.12.48.04Zm-.12-.38v.08h-.22v-.06l.22-.02Zm.57-12.3c-.26.18-.49.18-.72.05.22-.1.44-.23.72-.06Zm.52.43v.06h-.17v-.05h.17Zm.14-.56c-.05.15-.12.27-.3.05l.3-.05Zm2.29-.24c0 .04 0 .07.02.1-.41.18-1.64.34-2.26.13.61-.1 1.84-.29 2.24-.23Zm.09.54c-.08.04-.06.04-.1-.04.08-.04.06-.05.1.04Zm.07 6.97-.07.05c-.81.01.1-.72.07-.05Zm.56 6.36-.01.1c-.16.06-.32.06-.5-.2l.51.1Zm.34-13.88c-.24.26-.4-.05-.6-.07.2-.03.4-.18.6.07Zm.21 7.16c-.13.3-.14.3-.48.3.14-.36.15-.37.48-.3Zm.54.02c-.24.25-.38.05-.52-.02l.09-.2.43.22Zm.77-1.57.04.08c-.1 0-.12-.01-.04-.08Zm1.06-6.09v.11h-.42c.17-.18.3-.11.42-.1Zm1.02-.05-.07.02v-.04c.08-.03.07-.01.07.02Zm.8-.56v.08l-.25.02v-.06l.24-.04Zm1.91 7.79c-.27.1-.53.21-.88.05.34-.17.61-.1.88-.05Zm.03-8.04v.04c-.08 0-.16.02-.24.04L61 28.3h.26Zm-8 1.9.28-.05.01.08-.27.07-.01-.1Zm.03 6.8.05.27a.94.94 0 0 1-.1.01 2.9 2.9 0 0 1-.04-.26.3.3 0 0 1 .1-.02Zm-.25 6.63c-.13.18-.27.22-.44.06l.44-.06Zm-.66-6.3c.13-.17.26-.34.5-.24-.2.34-.2.35-.5.23Zm-1.85-.85c.02-.03 0-.04.08 0-.02.03 0 .04-.08 0Zm1.34.5.08.36.23-.43.18.42c-.33.19-.47.1-1.38-.05l-.48.19c-.03-.45.17-.38 1.37-.48Zm-8.83 7.63.18-.02a.5.5 0 0 0 0 .08l-.17.02-.01-.08Zm71.74 2.22.42-.22c.02.27.02.27-.42.22Zm-1.26 2.13.06-.22.11.06-.1.2-.07-.04Zm-2.69 1.7.22-.25a.9.9 0 0 0 .09.07l-.2.25a.97.97 0 0 0-.1-.08Zm-8.45 17.86.08-.12-.07.12Zm19.36-22.98.12-.2.02.02c-.03.06-.08.12-.11.2l-.03-.02Zm.76 2.86.18-.26c.08.09.09.02-.13.3a.22.22 0 0 1-.05-.04Zm8.14-11.08c.04-.12-.02-.11.22-.08-.13.14-.07.13-.22.08Zm-2.83.13c.27-.23.7-.3 1.15-.18.06.85-.75.36-1.15.18Zm-1.06-.34.59-.13.02.1-.5.3a4.2 4.2 0 0 0-.1-.27Zm-1.01-.23c.19.05.38.1.56.17-.18.2-.93.32-1.15.22l.24-.56.34.16Zm0 0 .58-.08c-.19.15-.38.13-.58.08Zm1 .22-.43-.05.43-.13v.18Zm-2.95-.41c.25-.06.25-.06.29.4l.72-.43.08.07-.18.51c-.61.08-.93.04-.9-.55Zm-1.82.03c.06-.29.19-.11.29-.1a4.1 4.1 0 0 1-.29.1Zm-.74-.18h.25c-.03.42.32.32.5.46-.27.25-1.06.2-1.53-.09l.78-.37Zm-1.47.35.02.05h-.03c-.02-.03-.03-.02 0-.05Zm5.18 3.63c-.41-.1-1.03.23-1.73-.5 1.9 0 .86.1 1.95.26a1.3 1.3 0 0 0-.22.24Zm-3.37-.27c.06-.07.03-.05.13-.02-.06.06-.03.06-.13.02Zm-.78-.3.14-.02c0 .37-.05.37-.14.02Zm-.66.03.18-.07.02.08-.18.06c0-.02 0-.05-.02-.07Zm-34.07 2.56-.04.05-.03-.04c.06-.05.05-.04.07-.01Zm3.82.12-.04.06-.15-.16.05-.05.14.15Zm.75.45-.63.05.25-.67.54-.06.02.08-.45.2c.1.15.16.26.27.4Zm.93-.62-.04.1a.98.98 0 0 1-.1-.07c.05-.1.01-.1.14-.03Zm.59.66c-.17.04-.3.06-.42.1-.05-.26.07-.33.21-.43l.2.33Zm.38-.12c.34-.67.56-.72 1.08-.24l.39-.25c.32 1.14-.9.17-1.47.49Zm1.34-.83-.01-.15.48-.05.01.1a.76.76 0 0 1-.48.1Zm1.84-.24-.25.08-.03-.1.26-.06.02.08Zm2.19.39c.18.17.06.28-.04.4-.04-.13-.11-.27.04-.4Zm1.53-.35-.15.14-.05-.06.15-.14.05.06Zm1.41.32h-.37c.12-.16.25-.13.37-.1v.1Zm.28.32-.03.06c-.02 0-.04-.02-.05-.04.04-.03.04-.04.08-.02Zm.67-.32-.11.06-.06-.1c.1-.09.05-.11.17.04Zm1.08-.35-.02.03-.01-.02Zm8.28.03c-.13-.38.35-.37 0 0Zm-47.84.8c.71-.28 9.18-.92 9.6-1.14.6.08 2.08 0 2.18-.01.57-.04.44-.08.59-.45l.68-.15.21.3c1.29-.6 11.54-1.22 11.59-.47.43-.76 1.15-.05 1.51-.56.1-.15.28-.14.38.04.15.27.33.17.53.12l-.04-.22c.31-.2.52.03.73.27.53-.31.87-.6 1.23-.26.27.26.3.25.54 0 .45-.46.33.28.96.16 1.26-.23 6.5-.55 7.35-.33l-.2.4c1.94-.97.78-.21 2.33-.47.16-.03.32-.01.43.17l-.25.21c.52.14.4-.56.94-.36.15.06 3.34.15 3.37.17.32.28.4.2.88-.24.85.95.43.17.9.22.42.02.84.08 1.27.12.03.12.07.25.1.42.7-.9 1.76.28 2.67-.42.4-.3.31.08.94.27.03 0 .04.03.07.06l-.21.15.34.19c0 .02 0 .05-.02.07h-3.78v.24c-.42-.08-.43-.35-.71-.14-.03.03-.1 0-.15-.02-.46-.23-.94.3-1.19.04l.33-.12c-.26-.18-1.43.15-1.8-.04-.54-.27-.59.1-.83.35-.62-.07-.77.33-1.2.1-.13-.15.02-.45-.27-.5 0 .48-.26.57-.6.53-1.03-.08-.44.05-1.17-.56-.09.2-.15.33-.2.4h-.52v-.32l-.98-.18.27.33c-.72.31.5-.4-3.56.43-.35-.38-.45-.39-.93-.02l-.1-.26c-1.19.38-4.5.29-4.5.29l.14.12c-.3.26-.51-.41-.67-.09-.16.33-.2.23-1.6.26l.05.37c-.73-.5-1.4-.48-2.02-.06-.19-.07-.33-.16-.5-.17-1.57-.14-1.45-.02-1.2.52-.36.18-.67.14-.65-.1.1 0 .2-.03.35-.05-.53-.94-.84.14-1.38-.5l-.77.3.36.21c-.2.28-.39.28-.61.18-.02-.16.05-.42-.22-.32l-.13.58c.3.67.91.03 2.62.37.54.11 1.8.22 2.22.18v-.1c-1.08 0-1.16.04-1.33-.1.24-.15 1.3-.22 1.69.1.43.33 6.01.46 6.34.2.48.18.03.21 1.69-.03l.02-.07c-.25-.31-.51-.07-.76.02-.86-.8-.34.03-1.17-.27-.28.23-.6-.03-.96.12.07-.3-.23-.42-.1-.7.14-.27.2-.63.55-.7v.46c.34.12.76-.13.98.38.23-.6.77.09.8-.5.45.05.75.37 1.11.54.29.17.29.17.45-.31 3.41 0 .4.73 3.45.23.63-.11.22.4.02.77.23.01.38.12.54-.05-.09-.45.03-.66.12-.75.18-.15.2.14.4.24 1.14-.78 2.49-.01 4.94-.37.01.18-.07.4.17.4l.74-.62c.54.53.24.72 2.44-.28v.23l1.26-.25c.08-.89 1.35-.02 2.04-.54.1-.08.57-.1 1.02-.1l-1.39 2.23.13.09c.5-.7 1.03-1.5 1.57-2.32.3 0 .55.02.58.02.1 0 .23-.13.3-.1.1.06.2.06.31.04-.27.45-.46.82-.4.92.11-.09.39-.48.71-.96.07 0 .14 0 .21.02.14.04.24 0 .25-.2l-.35.02.28-.44 1.5.06c.04 0 4.44-.04 5.67-.08-.1.16-.16.33-.22.52.18-.16.31-.34.43-.53h.12c-.03-.04-.05-.05-.08-.07.07-.13.14-.25.2-.4l-.1.07c-.02-.05-.1-.1-.14-.16h.82c-.68-.11-1.37-.18-2.06-.24-1.48-.13-.61.46-1.6.3l.12-.3c-3.37-.37-1.54-.13-4-.23l.33-.63 7.29.2-.2.23.1.07c.09-.08.19-.18.25-.29a.5.5 0 0 0 .09-.27l-.23.25c-1.7-.11-7.5-.53-7.68-.7l.26-.15c-.66-.2-.17-.06-1.03.32l.79-1.27c2.7-.2 7.52.94 10.45.52-.06.12-.1.24-.13.35.12-.1.23-.21.32-.37.25-.05.5-.1.72-.17l-.38-.28c.34-.37 2.02.3 2.22.05l-.31-.11c.12-.45.04-.58-.33-.58l.15.1a2.1 2.1 0 0 0-.07.12l-1.45-.1.29-.44a.3.3 0 0 1-.05-.03l-.3.48c-.89-.03.08.16-1.28.18-.84.01-.46-.29-1.1-.37-2.6-.36-3.1-.08-2.95-.55.06-.2-.45-.16-.65-.16l.08.37h-.66l.3-.39h-.64l-.05.34h-1.36l.12.2c-.25.02-.5.13-.8-.04l.23-.24-.24-.33c-.27.63-.96-.22-1.3.32l.22.2a1 1 0 0 1-.54.08c.44-.74.8-1.38 1.08-1.88 5.94.3 11.55.67 13.14.77l-1.09 1.76h-.34v.07h.3c-3.5 5.64-8.8 13.9-9.66 13.03-.2.02-.11.36-.43.22.33-.44.74-.82.78-1.48l-.85 1c.42-.8.97-1.51 1.41-2.36l-.44-.14c-.27.64.09.24-1.83 2.68l.32-.11c-.51.6-.6 1.37-1.27 1.78-.33-.3-.38.13-.64.2.22-1.71 2.58-4.35 2.17-4.8.33-.14.44-.28.52-.68l-.27.15c.2-.54 1.26-1.86.84-2.2-.9.55-1.92 2.54-2.93 3.51.21-.57.64-1.02.8-1.6-3.68 5.01-12.91 19.28-12.91 19.28v-.01c-.01 0-.02 0-.02.02v-.01c-.52 1.58-9.2 11.91-9.24 12.02.21-.11.21-.36.52-.4-.06.19-1.35 2.26-1.99 2.4l.66-1.67-.38.01c4.52-7.48 5.83-10.2 6.17-10.11.23-.26.47-.5.54-.87l-.23.21c.35-.96.82-1.86 1.54-2.64l-.33-.3c-.02.17-.02.33-.06.48-.1.3-.67-.02-.45.34.22.4-.42.42-.65.47l-.32.5c.08-.25.75-1.49 1.08-1.62.09-.57 7.24-11.43 7.17-11.78.15-.05.38.06.38-.18a2.82 2.82 0 0 1-.15-.1c.65-1.01 1.43-.93 1.28-1.87-.3.2-.24.66-.66.77 0-.37-.25.14 1.28-2.03l-.14-.1c.66-.52.46-.22.8-1.08h-.33c.13-.28.36-.32.62-.34.23-.01.28-.24-.14-.45.76-.34.56.2 1.34-1.35-.13 0-.26 0-.4.02-.08-.2-.03-.33.2-.35h.02-.02c.03-.38-.34-.35.13-.8.2-.2.44-.4.42-.76l-3.44 4.83c-.12-.28-.24-.08-.36-.1.14.36-.42 1.14-.83.74.1-.07 4.13-5.58 4.18-6.41-1.3 1.26-2.62 4.02-3.32 4.24.05-.1.9-1.61 1.66-3.48a.61.61 0 0 1-.1-.06c-.8.79-3.67 6.26-4.87 7.02l.1-.45S92.9 77.56 90.18 79.49l.1-.74c-.94.64-11.25 16.98-12.46 18.41l-.1-.06c.42-.86.99-1.65 1.38-2.52-.31-.16-.37.06-.46.2-2.14 3.34-3.2 4.85-3.77 5.71-.85-.2-1.68-.49-2.4-.9l.11.64.36-.18c1.15.77 1.29.93 1.6.94-.23.37-.33.62-.44.97-3.41-.4-3.18-1.37-3.18-1.37l-.26.41c-3.86-1.83-3.68-5.8-4.85-6.93a35.18 35.18 0 0 1-3.7-4.1c.36-.25 1.45-.62.64-1.24-.13-.1-.36.12-.57.31-.67-.69-.84.1-1.02-.5-1.7-5.63.44-.67-3.32-5.6-.42-.56.46-.72.78-1.78.2-.7.13-1.27-.06-1.78a6.7 6.7 0 0 0-2-1.07l-.02.21c-.99.07-.65-.63-.78-1.43l-.1.05c0 .22 0 .44-.02.66-.05.04-.12.06-.18.1-.26-.33-.6-.61-.75-1-6.04-15.28 1.52-6.34-13.43-24.48-3.48-4.21-3.15-2.63-3.12-5.06.02-.55-.13-.75-.1-1l.32-.04.17.32.1-.05c-.05-.1-.1-.2-.13-.3.14-.02.28-.05.41-.1.55-.24.6-.42 1.08-.33-.23.16-.45.21-.51.48.48.49 23.71-3.5 23.8-3.55Zm.37-13.75c-.17.2-.33.2-.48 0h.48Zm1-.15.02.11-.54.1c0-.05-.02-.1-.03-.14l.56-.07Zm1.23 12.5c-.43.27-.52.27-.78-.1.43-.08.56-.07.78.1Zm.48.01a.34.34 0 0 0-.05.05.64.64 0 0 0-.05-.09c.09-.04.06-.04.1.04Zm2.22-13.36-.07.02-.05-.05c.07-.05.04-.07.12.03Zm2.38 5.97c-.13.05-.1.04-.13-.04.14-.03.1-.02.13.04Zm1.43-6.27a.16.16 0 0 0-.05.05.9.9 0 0 0-.07-.02c.08-.1.05-.08.12-.03Zm2.67 13.57-.18.07-.01-.09.19.02Zm.16.11-.04.05-.07-.14.11.1Zm1.08-8.28.01.1c-.13.08-.27.14-.42-.07.14 0 .28-.02.4-.03Zm4.54 6.22-.36.05c.15-.19.26-.19.36-.05Zm1.81-10.66.02.07c-.06 0-.12.03-.18.04l-.02-.07.18-.04Zm.48 7.22h-.5c.2-.2.2-.2.5 0Zm1.57-1.23.04.05c-.09.05-.1.04-.04-.05Zm2.17 3.65v.14h-1v-.07l1-.07Zm.38-.4V38h-.17v-.04h.17Zm1.11-3.08-.3-.23c.22-.05.28-.01.3.23Zm.58-.27-.06.11c-.1.04-.17.11-.18-.1 0-.1.16-.03.24 0ZM90 38.32c-.23.22-.24.22-.57.04l-.49.13c.16-.2.1-.1 1.06-.17Zm-.34-3.79c.63.26.75-.04 1.37 0v.1c-.52.25-1.33.27-1.61.05.02-.18.14-.2.24-.15Zm.86 5.73-.2.08v-.1l.2.02Zm.57-2.39-1.05.08a1.3 1.3 0 0 1 1.05-.18v.1Zm.39-2.38a.39.39 0 0 1-.04.07 1.44 1.44 0 0 1-.08-.08c.09-.06.05-.06.12.01Zm.48-.98c-.07.05-.05.06-.1-.03.08-.04.05-.05.1.03Zm.2 3.35c-.23-.03-.18 0-.19-.14.16 0 .1-.03.18.14Zm1.63 1c-.29.23-1.4.26-1.79.06a4.45 4.45 0 0 1 1.8-.06Zm-1.29-1.12c.6-.18 1.23.15 1.83-.07.05.24-.07.29-.17.3-1.7.03-1.48-.02-1.67-.1l.01-.13Zm.07-3.3.1.05a.65.65 0 0 0-.03.1l-.1-.05c0-.04.01-.07.03-.1Zm.77.02c.03.1.03.07-.04.11l-.04-.06.08-.05Zm.5-.02c-.04.11 0 .1-.12.06.03-.08-.01-.08.12-.06Zm1.16.05c-.26.25-.5.16-.82-.01.3-.13.56-.12.82.01Zm.28 3.2c-.01.05-.01.12-.03.13-.37.11-.3.04-.35-.1.37-.14.26-.13.38-.03Zm2.71-3.05-.03.12c-1.86-.46-2.1.3-2.64-.37 2.6 0 2.38-.05 2.67.25Zm-2.36-2.1-.05.07-.07-.03c.06-.08.03-.07.11-.03Zm2.43-.04-.01.03-.03-.02c.02-.03.01-.03.04-.01Zm1.3 1.87c-.13.2-.26.27-.4.2-.24-.08-.5.22-.76-.16.26-.05 0-.04 1.16-.04Zm-2.1 1.61c.04-.1.02-.08.1-.04-.05.1-.02.08-.1.04Zm-.26-.56v-.06l.17.02v.06a2.2 2.2 0 0 1-.17-.02Zm-1.29 2.37c.12 0 .23 0 .34-.02v.12h-.33v-.1Zm-.83.4.03.08c-.1.01-.1-.02-.03-.07Zm-.78 1.18c-.06.05-.04.05-.1 0 .06-.07.04-.07.1 0Zm2.65-.1c-.2.25-.33.17-.43-.09l.43.09Zm4.02.14c-.2.03-.03.09-1.44-.07-.37-.05-.2-.5-.88-.22l.45.08c-.2.4-.58.33-.96-.16l-.1.28h-.58l.35-.35c-1.64.15-1.47-.35-1.92.38l-.21-.3-.59.43c-.09-.63-.18-.35-.78-.46l-.02-.1c.62-.32 6.3-.2 6.67-.14l.01.12-.43.16c.09.24.46-.1.43.35Zm1.23-.64-.07.54c-.26-.37-.59-.31-.93-.32.14-.27-.09-.22 1-.22Zm14.93.79.38-.6 1.3.03-.48.63-1.2-.06Zm-1.03 1.1-.23.37c-.13-.03-.26-.04-.38-.08.33-.17.42-.26.61-.3Zm.08-.36c-.15.25-.31.22-.47 0h.47Zm.7-1.68.23-.04v.1h-.23v-.06Zm-12.62 1a.1.1 0 0 0-.02-.03.27.27 0 0 1 .05-.02c.01.05.02.04-.03.05Zm.26-.34c-.07.08-.09.06-.05-.03l.05.03Zm4.1.47a.22.22 0 0 0-.06.05c-.06-.09-.03-.1.05-.05Zm3.29.05c-.15.1-.16.02-.05-.08l.05.08Zm3.1.5c-.03.04-.02.04-.06.02 0-.02.02-.03.03-.05l.02.03Zm.07-.42c-.02.1-.02.07-.06.07l.02-.08.04.01Zm-.14-.45c-.79-.05-.54.62-1.22.66.42-.83 0-.85-.13-.74-.56.44-1.1-.03-1.28.02-.63.13-2.36.22-2.56-.05-.23-.3-.43-.2-1.11-.04-.28-.26-.3-.24-.6.03-.2.17-.8-.03-1.2.31-.02.02-.05 0-.1-.01l.03-.34c-.41-.14-.73.24-1.1.17l-.22-.35-.14.48c-1.56-1.28-1.12.27-2.88-.67.3-.43 4.93-.06 5.22-.02h.01v-.02c1.68-.06 5.65 0 9.52.1l-.38.58-1.86-.11Zm2.34 1.7c-.37.01-.74 0-1.13-.06l.3-.44 1.14.04-.31.47Zm-15.45-3.62c.47.08 1.32-.12 1.45-.1.32.03.63.1.97.14l.08-.44c1.5 0 1.58-.07 1.7.24.11-.1.2-.18.3-.22.06-.02.2.02.2.03.01.37.3.18.46.35-.09-.4.1-.42.3-.38.5.07.5.56 1.08.15l-.4-.05-.01-.1c.26-.06 9.42.17 9.55.4.2-.05.42-.09.66-.12l-.6.91.01-.11c-.42-.3-.4-.03-1.43-.06-2.61-.09-2.23-.14-2.82-.25.12.3.22.28 3.56.42-.24.19-.79.54-1 .33-.3-.31-1.1.34-1.21-.23-.44.24-17.51-.08-17.92-.18 1.46-.28.3-.13 2.47-.2.06 0 .13-.04.18-.06-2-.17-2.9.22-2.86-.31.02-.28.24-.26.82-.21l2.22.16c.67.19.9-.35 2.24-.11Zm-1.67-5.13v.11h-.46c.16-.15.3-.1.46-.12Zm.65-2.17c-.25.16-.43.13-.62 0h.62Zm-.08 2.76c-.01.02-.04.03-.06.03-.02-.11 0-.11.06-.03Zm.55 1.47c-.51.27-.96.16-1.47.1.17-.33.39-.25.55-.22 1.04.14.38-.14.92.12Zm.8-2c-.36.16-.63.1-.9.02.28-.17.55-.16.9-.02Zm-.65.44.63-.1c-.18.28-.4.17-.61.2l-.02-.1Zm-.18 1.88.12-.08-.08.13-.04-.05Zm.16.82-.02.1-.44-.09c.2-.16.2-.16.46-.01Zm1.77-.83c-.26-.27-.46-.24-.7-.1-.35.2-.35-.08-1.08 0 0-.2.1-.31.27-.31 1.21-.02 1.47-.11 1.5.4Zm-.25-2.4.01.09-.22.05-.01-.08.22-.05Zm.26 4.78c-.01.03-.01.07-.03.1l-.12-.05.15-.05Zm.04-1.72c.05.1.03.1-.05.05l.05-.05Zm.26-2.6.03.1-.3.09a.96.96 0 0 1-.02-.11l.3-.08Zm.85 2.88c0 .05 0 .04-.03.05l-.02-.04h.05Zm.52-.4-.02.06c-.03-.03-.03-.01-.02-.05h.04Zm.3.57a1.32 1.32 0 0 1-.08-.11l.11-.09c.08.14.08.1-.03.2Zm.5.72-.06.03-.03-.05c.05-.01.05 0 .1.02Zm0-1.3c.5-.08.6.09.44.65l-.4-.17.25-.26-.3-.22Zm2.28 1.27.05-.05c.04.1.02.1-.05.05Zm-.9-.86c-.18.27-1.12-.46.65-.44 1.28 0 1.35 0 1.43.25-.2-.03-.35.14-.5.17-1.22.2-1.27-.49-1.58.02Zm3.07.24c-.14.07-.29.05-.43-.01l.43.01Zm1.4.57c-.11.11-.07.11-.18.03.11-.15.07-.13.18-.03Zm.4-.53.13-.33c.07.23-.07.26-.13.33Zm-.16-.4-.12.4c.1 0 .18.02.25.03-.23.2-.44.1-.61-.07-.3-.3-.26-.09-1.1-.43l-.51.4a1.95 1.95 0 0 1-.52-.39c.62-.01-.12-.44 1.74-.16 1.02.16 1.31-.3 1.68-.05-.09.15-.09.15-.81.27Zm.73 1.01c-.05-.08-.07-.04.03-.16.06.1.08.06-.03.16Zm-.12-.47v-.09h.25v.09h-.25Zm.85.55c-.09.07-.1.04-.06-.05l.06.05Zm2.35.02c-.17.18-.3.15-.48.02.18-.27.3-.08.48-.02Zm.68.05v.07a3.23 3.23 0 0 0-.28-.02v-.08l.28.03Zm2.28.13c-.05 0-.1-.02-.14-.03l.19-.04-.05.07Zm.6.18-.37-.11.1-.16c.11.03.18.1.27.27Zm.74-2.4-1.08 1.8a.76.76 0 0 1-.22-.21l-.51.07-.05-.12.29-.34c-.34-.25-.44.3-.76.2l.14.18c-.15.49-.62.32-.88.58h-.1l-.12-.24.31-.1v-.09c-2.9-.23.1-.44-2.7-.44l.45.27c-.43.16-.5-.04-.76-.27-.21.35-.38.41-.76.21l.33-.27-.76-.17c.47-1.01 2.57.1 2.66-.7-1.4.27-.8-.15-1.44-.19-3.8-.22-2.41.53-3.36-.25-.45.4-.4.65-.89.31-.74-.5-5.43.22-6.24-.35.75-.53 8.83-.26 16.45.12Zm-14.98-2.23c-.31.13-.62.11-.92 0h.92Zm-.65-6.35h.31v.03h-.3v-.03Zm1.75 4.16c-.34.1-.69.15-1.03 0h1.03Zm.43 3.1h-.3v-.07l.3-.02v.09Zm-.25-.46.3-.14.26.23c-.04.1-1.76.21-2.58-.12v-.1c.51.04.9.15 1.65-.14-.4-.1-.26-.05-.54-.17l.01-.1.83.06.07.48Zm.67-.47.01.1-.4.06c.17-.2.17-.2.39-.16Zm.25.32.01.05h-.16v-.05h.15Zm1.17.25c-.23.18-.4.09-.67.01.27-.12.44-.16.67-.01Zm-.16-.63c1-.14.53-.78 1.28.13-.1.16-.2.35-.3.56-.37.05-.42.02-.6-.51h-1.09c.21-.26.48-.15.71-.18Zm.12-2.11.2.08-.02.08-.2-.08a.26.26 0 0 0 .02-.08Zm2.77 3.6-.03.03a.49.49 0 0 1-.02-.06c.04 0 .04 0 .05.04Zm1.02-.1c-.06.1-.28.1-.06-.19.03.1.07.16.06.18Zm-1.87-1a8.56 8.56 0 0 0-.22-.2c.14-.16.34-.47.58-.48 2.05-.09 2.07-.11 2.14.23-.4-.15-.75-.04-1.1.02l.49.22-.12.4c.23.02.42.05.61.08v.06c-1.1.1-1.86-.15-3.26.2.08-.6.27-.58.88-.53Zm-.4-1.3c-.16.06-.1.07-.21-.04l.21.04Zm3.48-1.17v.05l-.18.04-.01-.1h.2Zm-.4 3.57c-.19.06-.33.09-.52-.08.2-.03.35-.14.51.08Zm-.16-1.21-.03-.09.53-.5.21.35-.71.24Zm1.55 1.23c-.14.06-.1.04-.15 0 .1-.09.07-.08.15 0Zm.95-1.12-1.33-.1v-.08l.73-.11-.25-.32c.28-.1.51 0 .76.1l-.06.24c.04.01.07.03.11.03 1.6-.03-.02.38 1.48.38l.12.37c-1.1.03-2.18-.19-3.26-.17 1.63-.67 1.19.23 1.7-.34Zm-1.07-1.63v.09h-.54l-.01-.07.55-.02Zm.02-2.79.03.02c-.07.05-.05.03-.08.02l.05-.04Zm.57 1.99.05.08c-.14.1-.16.02-.05-.08Zm1.15.07c-.07.02-.06.01-.07-.02.08-.02.06-.02.07.02Zm.32 1.8v.04h-.2v-.04h.2Zm.78 1.7a5.9 5.9 0 0 1-2.27.02c0-.11-.16-.08 2.27-.02Zm.26-3.66c-.3.47-.5.51-.75.1l.75-.1Zm.8 2.22v.31h-.74c.21-.22.42-.39.73-.3Zm-.12-.83.01.05-.13.01v-.05l.12-.01Zm.18-1.1.21.1-.01.08a2.6 2.6 0 0 1-.24-.05l.04-.12Zm.45 3.26v-.09l.58.03-.01.1-.57-.04Zm.89.23c-.54.18-1.07.01-1.61.09v-.09a5.45 5.45 0 0 1 1.6 0Zm-1-.93c.7.27.96-.4 1.17.2-1.23.4-2.28-.05-2.43-.11.2-.3.7-.33 1.26-.1Zm.27-.03-.25.02.23-.11.02.09Zm1.02-.5c-.15.03-.25.06-.37.1l.22.09c-.07.14-.74.24-1.1-.16.3-.16.8-.18 1.25-.04Zm-.83-.88c-.05.05-.04.04-.07.01.02 0 .03-.02.05-.04l.02.03Zm.68-1.16c-.16.3-.56.3-.92-.02.3-.1.6-.22.92.02Zm.8 1.09.01.14c-.3.04-.6.08-.91-.1.22-.04-.02-.04.9-.04Zm.94.89-.01.04.04-.04c.08 0 .16 0 .24.02v.11h-1.15v.05l.47.09v.1c-1.4 0-1.06-.46.41-.37Zm-.28-1.75v.02l-.03-.01Zm.65.03-.27.05a.45.45 0 0 1-.02-.08c.15-.08.07-.07.29.03Zm.4 1-.37.12.02-.06c.08-.09.13-.09.35-.07Zm-.15 1.1c.09-.14.12-.22.17-.25.33-.16.44.39-.17.24Zm1.31-1.52v.11l-.61-.06c.2-.07.4-.1.61-.05Zm-.54.54c.09-.08.05-.1.14.02-.07.07-.04.09-.14-.02Zm-1.44.96c.14-.15.26-.12.35.07l-.35-.07Zm-1.14 1.2v.06l-.17.01v-.05c.05-.02.11-.02.17-.03Zm.76.04a.6.6 0 0 0 .04.06c-.06.05-.04.07-.11-.03l.07-.03Zm.85.05-.08.04c-.06-.17.01-.18.08-.04Zm2.58-.23.27.39c-.76.02-1.45.03-2.14-.11.72-.35 1.24.21 1.87-.28Zm-2.94 16.87-.1-.05.34-.51c.02 0 .03.02.05.03l-.29.53ZM85.3 97.35c-.25-.53-.22-.28 1.51-2.95.63-.97.37-.7.59-.86l.06.05-2.16 3.76ZM82.64 102c.82.46.57-.95 1.14-.9-3.85 7.22-4 7.47-3.5 7.7.3.12.64-1.5 1.14-1.86.35.48-.94 2.18-2.44 4.49a16.7 16.7 0 0 1-2.62-1.9c.4-.65.71-1.2.78-1.33l-.45.18c.4-.81.6-.98.88-1.25a1 1 0 0 0 .05.09l-.13.4c.4-.35.44-.35.9 0 .5-.07 5.63-8.16 5.67-8.63l-.35.06c.22-.6.92-1.32 1.42-1.44-1.51 3.74-.6 1.44-2.49 4.4Zm-1.53 10.34c.12-.13.22-.23.29-.27l-.15.3-.14-.03ZM69.09 100.6c.47.33 1.09.54 1.27 1.1-.7.1-.93-.13-1.27-1.1Zm7.27 2.04c-.77 1.02-1.73 2.22-2.84 3.98l-.35-.42.08-.12c.06-.11.09-.24.14-.36l-.1-.06-.27.35-.23-.29c.23-.4.54-.88 1.02-1.43.36.43.48.43.74.07l1.2-1.67.6-.05Zm.37-1.36c.11-.02.29-.03.57-.04-.17.29-.35.58-.57.87h-.57l.57-.83Zm.77-.39c-.16 0-.32-.02-.48-.04l1.1-1.63a6.58 6.58 0 0 1-.62 1.67Zm-2.1 7.76c.37-.4.26-.3 1.05-.66-.27.43-.5.74-.7.99a13 13 0 0 1-.35-.33Zm-.23-.22-.22-.23.15-.28c.14.19.11.35.07.5Zm-1.3-5.65-.04.2c-.2-.19-.96.95-1.59 2-1.12-1.56-1.74-2.8-1.56-3.02l-.3-.26c1.03-.23.61-.1 2.17.59-.58.09-.6.28-.63.5.25.01 1.01.02 1.95 0Zm-11.23 7.06c-.4-.15-.53-.46-.32-.78l.44.7-.12.08Zm-4.27-10.56-.42-.3c-.35.28-.08.33-.04.47-.9.16-1.27-1.85-1.36-1.9-.57-.24-.75-.73-1.19-1.83.55-.56.58-.68.24-1.03.78-.19 1.2.96 3.1 3.83.18.27.16.33-.33.76Zm-.92 1.51.32-.26.02.15-.34.11Zm-4.8-9.88c-.22-.32-1.03-1.48-.84-2.02.63.56 1 1.18 1.23 1.93l-.4.1Zm-14.38-30.9c.03-.03.07-.04.1-.05l.05.27-.13.06-.02-.29ZM48.5 81.5l-.14.1a6.05 6.05 0 0 1-1.55-1.74l-.19.29c-.38-.47-.75-.91-.7-1.6h.01l-.01-.02-.01.02c-.09-.27-.13-.56-.27-.8-.57-.95-4.13-4.37-4.05-4.9.4-2.75-2-3.72-2.82-4.07-.76-2.93-3.1-4.45-2.16-5.24 2.17 3.38.65 2.65 2.49 4.04-.02-1.2-3.1-4.11-2-4.75.52-.3.27.1 1.6 1.25.13-.45-.18-.71.1-1.21l.33-.11c-.16-.23-.08-.54.06-.87.7-1.67-1.51-2.37-1.9-3.7-.84.52-1.15-.87-1.9-2.58-.22-.5-.27.18-.69-.69-.1-.22-.66-.17-.24-.73l.1.25.58-1.16.17-.08c.06.05 5.66 8.47 7.48 12.16l-.2-.05a1.6 1.6 0 0 0-.05.08l.24.13a.39.39 0 0 0 .06-.06c.39.81.58 1.37.48 1.55-.45.21-.5-.09-.8-.07-.27.24-.1.28.01.3.7.23.7 1 1.6 3.32a31.6 31.6 0 0 0-.5-.34.5.5 0 0 0-.1.05c2.34 2.87-.2 2.63 1.87 3.98l.15-.1c-.25-.62-.49-.78.23-1.9.35.74 1.3 2.5 2.03 5.77-1.19-.47-1.85-1.28-1.73-2.6l-.13.07c.1 1.74-.92 1.09 1.94 3.09 0 0 1.12 3.27 1.11 3.3-.41-.32-.47-.82-.83-1.11l.33.73Zm-8.77-11.3c.46.38 1.02.69.94 1.49l-.94-1.48Zm-1.2-1.54.15-.1.08.22-.23-.12Zm3.53 7.98-.25-.32-.11.05c-.02.07-.06.2-.03.2.4-.04.02.38 0 .64 0 .11.07.19 0 .35-1.06-1.53-.03-.07-1.38-1.55l-.16.3-.57-.35c.6-.8-.35-.38-1.42-3.08.52.08.37.65.83.8-.62-.97-.76-.78-.1-1.44-.32-.63-.53-.66.23-1.1l-.55.05c-1.1-2.98-2.42-5.09-2.35-6.04.76.88 1.35 1.86 1.77 2.93l-.88-.35c.84.62 4.24 4.34 3.8 5.57-.47 1.34.7.66.7 1.63-.2-.1-.35-.16-.49-.24.27.7.77 1.22 1.16 1.82l-.2.13Zm-4.25-5.37-.53-.37-.16-.43.14-.1c.35.12.1.74.88.5l-.33.4Zm-1.16-.7.15-.1c.21.33.17.49.48.43l.1.82-.73-1.15ZM35.22 59.2l.17.42c-.43 0-.43-.01-.17-.42Zm-.49-.34.18-.14.24.17-.22.17-.2-.2Zm-.12.27-.27-.42.09-.05.26.41a1 1 0 0 0-.08.06Zm-.8-1.02-.2.22c-.09-.08-.23-.13.05-.35.18-.13.23-.41.59-.39l-.22.3.61.28c-.55.23-.57-.04-.84-.06Zm.34 1.78-.02-.2.06-.03.1.15-.14.08Zm-.33-1.1-.13-.12.11-.1.1.16-.08.07Zm-.28.6-.1-.5a.36.36 0 0 1 .1-.02l.1.46-.1.05Zm-.37-1-1.08-2.89c.47.1.32.12 1.33 2.13-.37.3-.02.4-.25.76Zm-1.4-11.82-.2-.31.27-.02.07.25-.15.08Zm.04 1.25-.13-.2.17-.1-.04.3Zm-.39-.44.1-.3.24-.02-.19.29-.15.03Zm-2.9-1.08.19.09-.11.13-.07-.22Zm-.05-.27v.07l-.02-.06h.02Zm.75-.5c.23.02.48-.22.73.05-.34.25-.72.18-1.07.2l-.14-.34.48.08Zm2.38-.23c.02.3-.16.39-.4.39l-.05-.08-.07.08c-.1 0-.19-.03-.28-.05.02 0 .02-.02.04-.03l-.34-.13c.56-.06.34-.02 1.1-.18Zm-.2-.34c-.18.2-.22.07-.27-.04.07 0 .16.02.27.04Zm-2.58-1.3c.05-.04.01-.07.18 0-.13.1-.08.1-.18 0Zm-1.59-.58c-.06.07-.08.07-.06-.03l.06.03Zm2.38-1.11-.26.08a9.88 9.88 0 0 0-.64-.5c.37-.04 0 .12.9.42Zm.32-.34c-.07.1-.02.12-.22 0 .13-.12.07-.13.22 0Zm.48.23a.4.4 0 0 0-.05-.03c.07-.08.08-.05.05.03Zm5.51-3.23-.12-.02a.55.55 0 0 1 .13-.03v.05Zm2.67 4.93c-.18.11-.11.13-.25 0 .13-.14.07-.13.25 0Zm-.2-1-.21-.01v-.13l.21.07v.08Zm-.68 2.38c.13-.07.24-.03.42.14h-.39a.54.54 0 0 1-.03-.14Zm-4.03 12.58c0 .12-.02.23-.04.35l-.15.06-.05-.3c.08-.04.16-.08.24-.1Zm-.12-.3-.17-.19.13-.09.2.17-.16.11Zm7.15-11.26-.05.05-.06-.08c.09-.05.06-.05.11.03Zm-.54-1.08a.87.87 0 0 1-.09.06c-.04-.1 0-.14.1-.05Zm-17.23-7.95.24.19c-.16.07-.36.1-.58.14-.07-.1-.14-.2-.2-.32.19-.01.36-.02.54-.01Zm19.76-7.26.21.02c-.14.1-.1.1-.21-.02Zm-.84.25c.23-.31.23-.31.54-.16-.18.11-.31.29-.54.16Zm82.42 1.88c-.18.1-.36.27-.65.13.24-.23.45-.1.65-.13Zm1.83-.27v.07l-.2-.01v-.1l.2.04Zm1.5.07v.04l-.13.01v-.06l.13.01Zm-65.7 78.36-.06-.17.1-.07.09.16-.13.08ZM28.7 48.93l-.28-.23c.26-.06.26-.06.29.23Zm-1.67-.32-.13.05v-.34c.07-.02.13-.05.19-.09l-.06.38Zm-11.36-9.17c.17.27.38.42.63.42l.37.62c-.08.2-.35-.03-.42.29.1 0 3.19.1 3.24-.54-.19.04-.34.05-.48.1-.4.13-.7-.28-1.09-.17.03-.3.2-.33.37-.34 1.81-.16 1.52-.14 2.61.18-.45.56-.64.09-1.01.55-.33.41-.35.4-.73.47.9 0 .97-.23 1.39.12-.39-.05-.57.32-.87.48.33.43.37.36 2.31.22a57.64 57.64 0 0 1 2.47-.08v-.02l.76-.02c.1.07.2.14.25.26l.19-.27 1.89-.08.12.12.11-.08-.04-.05.54-.05c.2.18.25.27.23.45l-.04.02-.3-.25v.13c-.13-.06-.22-.01-.43.15-.08.06-.93.13-1.95.2a1.38 1.38 0 0 0-.74-.25l.3.28-3.42.2c-1.94.19-2.15.58-2.58.04.68-.02.77.02.82-.2-2.1-.02-1.82 0-2.56.38l.03.21c-.47 0-.95-.12-1.37.22.08.27.27.24.42.21.52-.09 1.09.25 1.13.43l-.3.27c1.5.53.92 1.24-.22 1.24.57.34.43.22 1.72-.26 1.52-.56 1.9.18 2.32-.39.25.19.54.25.77.06.35-.3.7-.23 1.26-.26l.05.07.05-.04-.03-.04c.3-.02.65-.06 1.1-.21.23-.09.41.4.84-.15l.09.24c.98-1.32.42.4 1.63-.63.14.05.28.12.43.14-.03.06-.02.18.17.44l.13-.08c0-.08 0-.16.02-.27l.36.06c-.02-.06-.06-.1-.1-.15.34.22.6-.21 1.44.4.08-.51.1-.33-.14-.7h.81l.02.02-.4.32c.27.17.48.3.72.43v-.45a8 8 0 0 1 .61.63c.02.11 0 .25-.06.42l-.32.22c-.21-.33-.36-.44-.52-.44.08-.32-.24-.3-.62-.24l.43.29c-.11.04-.23.11-.37.2l-.97-.68-.13.1.92.67c-.22.1-.49.21-.84.3l-.11-.26c-.5.44.04.42-.1.69-.57.11-.37-.4-.76-.45.77 2.12.5.33 1.52 3.7.05.21.1.21.49-.09l-.6-1.3.12-.09.35.21c.14-.39-.2-.41-.48-.47.1-.1.2-.14.29-.18l.3.12.07-.07a4.2 4.2 0 0 0-.23-.1c.28-.06.44.08.63-.23-1.08 0-1.15-.08-1.1.45-.28-.07-.51-.18-.21-.73l.23.36.1-.08c-.03-.08-.04-.18-.06-.28.25-.07.98-.15 1.84-.22 0 .04.01.08.04.12.1.1.22-.59.28.46.04.7-.4.33.5.94v.02c.4 1.16.16.64.76 1.69l-.13.09c-.74-.73-.71-1.12-1.43-1.28.19.66.87 1.02 1.04 1.7l-.1.07-.22-.11-.23.23c-1.6-2.5-1.5-2.49-1.92-2.37-.03.58.66.68.58 1.25-.04.22.99.52.27.93-.3-.27-.36-.74-.75-.95l-.2.12.68 1.2c-.58.2-.82-1.48-1.44-1.48.38-.76-.94-.83-.94-1.45h.02l-.02-.02v.02c-.1-.04-.21-.06-.26-.13-1.47-2.05-.73-.98-1.67-1.08-.26.56.69.03.63.4-.12.19-.61.37-.42.56l-.53-.1-.1.1.42.68.27-.38c.84 1.3.28.58.77 1.84l-.17.08.05-.4-.31.3.47 1.5c-.37-.4-.94-1.35-1.1-1.33-.61.03-.36-.99-.75-.82l-.3-.47c-.14.32.02.44.22.53l-.24.48-.53-.82c2.07 5.53 13.8 28.87 15.28 27.91l.04-.36c.2.32.58.52.53 1-.01.12.1.19.15.27-.57.28 1 1.56 1.28 1.77.08.06 3.26 5.05 4.04 5.01l-.04-.25c3.14.64 3.38 3.26 4.86 5.28.05.08 1.72.43 1.54 1.33 0 0-.01-.05.52.78-.02 0-.03.02-.05.04l-.45-.27c.05.07 4.2 6.5 4.65 8.02-.03 0-.05.02-.08.03l.09.27.29.1c-.1.19-.1.19.14.25l-.13-.2.6.5-.65.17-.14-.23-.87.28c.1.51 1.52-.02 1.62.67.18 1.2.02.82 1 1.98.46-.02 1.13-.25 1.25.2.17.6 1.32.82.4 2.6-.34.67.24.68 1.11.9l-.1.32c-.18 0-.17-.04-.4-.17l-.1.08.85 1.07.13-.07c-.12-.16-.27-.3.14-.67 1.04.1.94-.04.82 1.6l-.14.08-.22-.35-.06.04-.11.68c-1.32-.94-.43-.48-.99-.96v-.01l-.02-.02.02.03c-.3.4-.21.26 1.17 2.66l-.11-.48c.77.02.72 1.94 1.48 1.27.05-.3-.5-.44.23-.95-.14-.4-.65-.56-.61-1.05.27-.07.51-.1.77-.18.72-.27 2.04 4.56.74 5.9-.56.58-.5 1.04.02 1.12.65.1 1.51-.46 1.77.19.33.83.57 1.55-.62 2.67-1.19 1.13 5.3 4.32 7.52 1.58.48-.6.35-.3 1.07-.83-.16.17-.4.41-1 1.09.31.1 1.22-.84 2.31-2.15 1.21-1 1.79-1.5 2.14-1.69-.58.71-1.17 1.4-1.7 2.02.6-.35.92-.97 1.49-1.35a26.13 26.13 0 0 1-4.49 4.99c.08.03.74.32.79.38.8 1.24 3.09-2.63 5.06-5.92.66.22 1.92.43 4.93.02.53-.08 1.03-.61 1.07-.75 1.05-3.23-2.11-1.72-2.36-2.6l.65-.28c.15-.18.3-.33.4-.5.34-.5-.66-.7-.9-.7l-.23-.01c.75-1.05 1.82-2.87 2.13-3.15.91.97.48.28 3.68-4.78.05-.1-.02-1.22 2.75-4.23l-.13.65.1.07c.74-.58 6.03-10.1 6.57-10.95l.32.2c.06-.07 24.86-37.27 34.17-53.13h.24v-.07h-.19c.37-.62.7-1.2 1.01-1.75l.2.02a.43.43 0 0 0-.15-.1 58 58 0 0 0 1.68-3.12c-.06.05-.8 1.27-1.9 3.04-1.2-.35-5.08-.56-5.65-.97-.15.31-.22.27-2.28.05.13-.26.13-.27.3-.19.46.26.82.05 1.87-.12-.13-.12-.47-.5-.58-.3-.3.5-3.02-.74-3.38-.12-2.39-.48-3.41.05-3.6-.63l.87.05-.1.24.11.08.18-.32c1.38.07 3.64.14 3.96.09-.78-.15-1.59-.04-2.35-.56l.52-.06c-.46-.1-.62-.08-.55-.35l.9.2-.36.14c.26.05 3.03.2 3.13.2-.34-.17-1.36-.26-1.8-.65l-.16.2-.06-.1.2-.1.02-.26.41.16h-.01l.02.01c2.7-.36 3.09.2 3.37-.31-.53-.7-5.9-.8-6.31-.85 1.15-.06.93-.4 2.6-.1 1.35.23 1.01.18 1.39.02l-.03-.1c-.57-.05-4.27-.33-5.24-.67-.44.43-.26-.25-.68-.14-.24.07-.68-.02-.97-.34l.2-.02c-.02-.43-.5-.06-.93-.36l.08-.18c-.06 0-3.81-.5-3.86-.54l.25-.1-.37-.11c0-.03 0-.05.02-.08h2.52s-4-.3-6.62-.73v-.08l.25-.11c-2.86-.18-2.76-.12-2.8-.33l-.35.1v-.1h.35l.1-.1c-3.64-.75-1.11-.7-4.22-.84-.32-.4-.82-.53-1.24-.36-.46.19-19.06 2.86-23.98 1.97l.11-.2c-.62-.07-.56.4-1.23.32-.46-.05-.54.28-1.09-.14-1.2.36-1.84-.07-2.48.19-.45.18-.83.04-1.2-.3l-.46.34c-.99-.27-1.2.1-1.1-.35l.37-.11-.02-.1c-.39.14-.87-.27-1.18.33-.24-.17-.97-.2-1.3-.04l.38.06v.12c-1.89.27-2.35-.48-7.66.34-3.85.6-.3.2-5.99.76-6.8.69-10.4.18-10.73.8-.18-.14-.36-.2-.57-.05l.32.1c-.37.13-.71.22-1.14.1l.25-.12-2.82-.08c.14.21.46.05.44.4l.14.03c.34.12.47.42 1.13.31 1.5-.24.99-.24 1.36-.2v.1c-1.65.3-.78.21-.88.75l-7.25 1.02a5.54 5.54 0 0 0-3.16.19c-.35-.14-.57.07-.83.33-.33.35-1.97.02-2.35.3-.18.14-.32.19-.53.22-1.14-1.64-2.23-4.3-2.97-4.17-.07.8.93 2.86 1.82 4.27l-.2.02.25.05c.26.41.51.76.72 1l-6.73.64-.23-.65a.9.9 0 0 0-.11.05l.2.61-.47.05a23.72 23.72 0 0 0-5.19-3.46c-.02.52.1 1.09.8.87l-.26.51.45-.23c0 .05 0 .15.05.16.59.13 1.1 1.54 1.27 1.64l.34-.35-.1.82.47-.47-.86-.91c1.32.67 2 1.3 2.72 1.94-.23.1-.51.17-.82.21-.58-.37-.8-.82-.92-1l-.12.07c.05.32.12.73.32 1l-.8.02c-.03-.13-.22-.25-.65-.46 0 .17-.21.35.13.34.1 0 .16.06.2.14-.2.01-.4.03-.55.07.2.49.6.08.83.31l-.08.35c1.05 0 .5.22.8.36.33.02.65-.24 1.01.01-.25.2-.63.02-.83.45.92-.03 1.58-.1 2.13-.16.02.09.1.2.2.34-1.84.1-4.52.08-6.59 1.62v.28c.23.01.5-.1.68.18"/></g><path fill="#231f20" d="M29.57 44.24h-.01v.01l.01-.01M98.12 46.2c.36.01.61.31.97.14.84-.4 1.3.03 1.7.03 6.83-.05 7.7.15 8.4-1.08-1.28.15-5.53-.2-5.85-.23-.09.26-9.52.5-9.61.6 2.92.54-1.2.47 4.39.55M118.85 35.4c-1.46-.43-1.76.16-2.06-.41-.07-.13-.18-.1-1.18-.1l-.14.33.48.43c.5-.34 1.42-.12 2.9-.24M127.9 35.54l-.38-.12c-.06.36-.18.3-.62.3l.2-.4a1.9 1.9 0 0 0-.65 1.03c.17-.15.3-.33.4-.53.83.27 1.67.29 2.52.14-1.11-.24-1.32-.03-1.64-.3l.17-.12M18.25 40.93v-.06l-1.84.19c-.05.9 1.1.07 1.84-.13M127.02 33.28l4.17.31-.22.34c.4-.04.28.15 1.1-1.36.02-.05 0-.15-.02-.32l-.84 1.3a17.9 17.9 0 0 0-4.19-.27M106.37 43.4c-1.48-.4-2 .33-2.62-.02.45.27 2.32.2 2.62.03M73 27.5c.33.34.3.03.46-.22l.2.04-.03-.26-2.08.08v.04l.8.19c-.09 0 .3-.24.66.13M76.3 27.22c-1.34.14-1.3.17-1.27-.18h-.76c.66.73 1.14.12 1.77.43l.25-.25M124.59 35.68l.02.17c.55-.03 1.1.08 1.65-.08-.16-.09-.33-.15-.49-.12-.76.14-.76-.11-1.18.03M129.25 34.05h-.01.01M129.89 34.32c.45-.14.64-.02.95-.04-.38-.18-.74-.17-1.59-.23.13.34.23.41.64.27M127.74 34.07l1.11.32.38-.34c-.5-.05-1-.07-1.5.02M99.93 43.2c-.28-.06-.54-.13-.77.1l.3.3c.18-.14.32-.28.47-.4M119.02 38.37c.44.08.82.02 1.2 0-.49-.24-.9-.24-1.2 0M104.86 38.1c.39.02.78.13 1.17-.1h-1.17v.1M24.8 34.13l1.27-.16c-.45-.14-.87-.13-1.27.16M128.48 36.48c.35.18.45.17.78-.05-.25-.07-.5-.13-.78.05M131.16 34.66h1.11v-.04l-1.1-.12-.01.16M83.4 42.44c-.34-.44-.34-.44-.58-.3.14.18.27.38.58.3M17.83 44.97l-.62-.18c.13.4.18.4.62.18M15.91 44.33h.01v-.01h-.01"/><path fill="#231f20" d="M15.92 44.32c.32.26.66-.06.98.05-.5-.35-.54-.21-.98-.05M84.16 42.86v.01h.01v-.01h-.01M83.45 43.06c.27-.06.53.08.71-.2-.28-.16-.45-.13-.71.2M116.19 36.12c.17.01.36.13.48-.2l-.5.06.02.14M107.74 37.97h-.82c.26.2.54.16.82 0M106.92 37.97h-.01M107.16 43.34c-.15-.08-.18-.42-.47-.25.14.34.14.34.47.25M126.17 40.34c-.2-.2-.36-.05-.53.04l.06.01c-.29.18-.53.4-.55.78l.61-.76c.13.03.27.07.41-.07M18.54 36.81c-.2.07-.23.2-.14.36.06.11.37.1.14-.36M125.57 33.23c.26-.05.5.15.75-.05l-.74-.06v.11M125.22 32.93v-.09h-.82v.04l.82.05M110.93 37.98l-.52-.1a.3.3 0 0 0-.03.09c.31.17.31.17.55.01M123.54 35.74l.6-.15c-.43-.1-.43-.1-.6.15M104.66 37.48l.49-.16c-.36-.06-.36-.06-.5.16M127.21 36.2v-.01M127.22 36.2c.11.24.33.24.57.38-.11-.4-.38-.3-.57-.38M92.48 40.68l-.3.36c.32.02.32.02.3-.36M110.1 40.79l-.72-.07c.22.22.47.13.73.07M104.38 38.16l.01-.14h-.22v.12l.2.02M103.42 38.02v-.05h-.85v.05h.85M121.37 38.45l.41.2c-.05-.22-.05-.22-.41-.2M98.01 43.41c-.08-.1-.06-.16-.22 0l.05.1.17-.1M17.86 44.64h.4c-.18-.21-.3-.18-.4 0M84 41.98c-.07-.08.02-.07-.43.03l.02.1.41-.13M104.65 40.89l-.37.12c.16.1.3.11.37-.12M77.42 26.87l-.35.04.22.4.13-.44M101.59 38.06l.44-.04c-.1-.02-.26-.2-.44.04M15.91 44.33v-.01h-.01.01M15.5 44.14c.1.2.27.16.4.18-.1-.13-.19-.27-.4-.18M80.46 26.91l-.52-.25c.2.27.2.27.52.25M20.2 42.34h-.02v-.01.01h.02M20.88 42.29a1 1 0 0 1-.02-.1l-.66.15c.23.03.46.07.68-.05M126.57 32.97l.46.04c-.13-.25-.3-.15-.46-.04M111.91 38.08l-.19-.15-.04.08.17.17.06-.1M116.04 39.25l-.2.07.01.07.21-.05-.02-.1M27.59 33.76c-.26-.01-.2 0-.27.06.06.06.25 0 .27-.06M108.75 42.83c-.02-.03-.02-.06-.03-.1l-.3.12.02.08.3-.1M125.04 32.01l-.33-.05c.08.08.15.2.33.05M107.47 39.18c0-.11 0-.2-.02-.3-.1.1-.16.2.02.3M29.57 44.24l-.01.01h.03l-.02-.01M29.79 44.32a1.74 1.74 0 0 0-.2-.06l.16.15.04-.1M112.76 37.9v.07l.37-.07h-.37M133.83 35.45h-.34l.33.05v-.05M133.5 35.45h-.03.02M123.83 32.81a.57.57 0 0 1 .03-.05l-.04-.01c-.02.04-.02.02 0 .06M119.32 29.41c-.09 0-.17.02-.25.04l.25.01v-.05M119.07 29.45h-.02.02M127.3 33.01V33l-.27.02h.28M127.5 33.76c-.02.01-.03.02 0 0M127.5 33.76c-.02 0-.03.01 0 0M109.62 34.65c-.01.03-.03.03.04.07 0-.03.02-.03-.04-.07M112.9 35.6l.02-.07-.11.02.1.04M127.2 36.2l.01-.01h-.01M127 36.32c.07-.04.13-.09.2-.12l-.21.05.02.07M106.9 37.96v.01h.01M106.9 37.97l-.2.02.02.08.17-.1M19.18 41.91v.05c.04 0 .1.02.13-.03l-.13-.02M110.98 32.93c.18 0 .34-.03.47-.22-.32-.12-.61-.13-.91-.04.15.1.4-.07.44.26M110.37 32.26c.31.2.62.1.93.03a.96.96 0 0 0-.93-.03M111.3 32.29h.03-.03M110.13 32.73h-.16l.14.09c0-.03 0-.06.02-.09M109.97 32.73h-.04.04M44.04 43.2l.03-.06c-.1-.05-.1-.01-.03.06M45.59 43.23l.06-.23c-.14.05-.1.12-.06.23M45.59 43.24v-.01"/><g clip-path="url(#c)"><g mask="url(#e)" clip-path="url(#d)"><g clip-path="url(#f)" transform="translate(111 117)"><g clip-path="url(#g)"><g clip-path="url(#h)"><path d="M-144-150H72V66h-216z"/></g></g></g></g></g><g clip-path="url(#i)"><g mask="url(#k)" clip-path="url(#j)"><g clip-path="url(#l)" transform="translate(94 87)"><g clip-path="url(#m)"><g clip-path="url(#n)"><path d="M-127-120H89V96h-216z"/></g></g></g></g></g></svg>