<svg xmlns="http://www.w3.org/2000/svg" xmlns:xlink="http://www.w3.org/1999/xlink" width="500" zoomAndPan="magnify" viewBox="0 0 375 374.999991" height="500" preserveAspectRatio="xMidYMid meet" version="1.0"><defs><clipPath id="3d7ea7168c"><path d="M 112.796875 123 L 227 123 L 227 252 L 112.796875 252 Z M 112.796875 123 " clip-rule="nonzero"/></clipPath><clipPath id="a3b2fc2e8b"><path d="M 184 135 L 262.5 135 L 262.5 216 L 184 216 Z M 184 135 " clip-rule="nonzero"/></clipPath></defs><path fill="#000000" d="M 191.125 164.644531 C 189.253906 164.644531 187.410156 164.191406 185.75 163.324219 C 184.089844 162.460938 182.660156 161.207031 181.582031 159.675781 C 180.503906 158.144531 179.8125 156.375 179.558594 154.519531 C 179.304688 152.660156 179.5 150.769531 180.125 149.003906 C 180.753906 147.238281 181.792969 145.648438 183.164062 144.371094 C 184.53125 143.089844 186.183594 142.160156 187.984375 141.652344 C 189.789062 141.144531 191.683594 141.082031 193.515625 141.460938 C 195.351562 141.839844 197.066406 142.652344 198.519531 143.835938 C 200.3125 145.292969 201.636719 147.253906 202.320312 149.46875 C 203.003906 151.683594 203.019531 154.046875 202.359375 156.269531 C 201.699219 158.492188 200.398438 160.464844 198.617188 161.945312 C 196.835938 163.425781 194.660156 164.34375 192.359375 164.582031 C 191.949219 164.625 191.535156 164.644531 191.125 164.644531 Z M 191.15625 144.257812 C 189.113281 144.257812 187.136719 144.980469 185.574219 146.296875 C 184.011719 147.617188 182.964844 149.445312 182.621094 151.460938 C 182.273438 153.476562 182.652344 155.550781 183.683594 157.316406 C 184.714844 159.082031 186.339844 160.421875 188.265625 161.105469 C 190.1875 161.789062 192.292969 161.769531 194.207031 161.046875 C 196.117188 160.328125 197.714844 158.953125 198.710938 157.171875 C 199.710938 155.386719 200.046875 153.304688 199.664062 151.296875 C 199.277344 149.289062 198.195312 147.480469 196.609375 146.191406 C 195.066406 144.9375 193.140625 144.253906 191.15625 144.257812 Z M 191.15625 144.257812 " fill-opacity="1" fill-rule="nonzero"/><path fill="#000000" d="M 157.386719 163.472656 C 154.734375 163.46875 152.160156 162.5625 150.089844 160.902344 C 148.019531 159.242188 146.574219 156.925781 145.992188 154.332031 C 145.410156 151.742188 145.726562 149.027344 146.886719 146.640625 C 148.046875 144.253906 149.984375 142.328125 152.382812 141.1875 C 154.777344 140.046875 157.488281 139.757812 160.070312 140.363281 C 162.652344 140.972656 164.953125 142.4375 166.59375 144.527344 C 168.234375 146.617188 169.113281 149.199219 169.09375 151.855469 C 169.074219 154.511719 168.152344 157.082031 166.476562 159.144531 C 165.382812 160.503906 163.996094 161.597656 162.421875 162.34375 C 160.847656 163.09375 159.128906 163.480469 157.386719 163.472656 Z M 157.40625 143.089844 C 155.363281 143.085938 153.382812 143.808594 151.820312 145.128906 C 150.257812 146.445312 149.210938 148.273438 148.863281 150.289062 C 148.515625 152.308594 148.894531 154.382812 149.925781 156.148438 C 150.957031 157.914062 152.578125 159.257812 154.503906 159.941406 C 156.429688 160.625 158.535156 160.605469 160.449219 159.886719 C 162.359375 159.164062 163.957031 157.792969 164.957031 156.007812 C 165.957031 154.222656 166.292969 152.140625 165.910156 150.132812 C 165.527344 148.121094 164.445312 146.3125 162.859375 145.023438 C 161.316406 143.773438 159.390625 143.089844 157.40625 143.089844 Z M 157.40625 143.089844 " fill-opacity="1" fill-rule="nonzero"/><path fill="#000000" d="M 135.664062 189.605469 C 133.792969 189.605469 131.949219 189.152344 130.289062 188.289062 C 128.625 187.425781 127.195312 186.175781 126.117188 184.644531 C 125.039062 183.113281 124.34375 181.34375 124.089844 179.488281 C 123.832031 177.632812 124.027344 175.742188 124.652344 173.972656 C 125.28125 172.207031 126.320312 170.617188 127.6875 169.339844 C 129.054688 168.058594 130.710938 167.125 132.511719 166.621094 C 134.316406 166.113281 136.210938 166.046875 138.042969 166.425781 C 139.878906 166.804688 141.59375 167.621094 143.046875 168.800781 C 144.921875 170.328125 146.28125 172.398438 146.9375 174.730469 C 147.589844 177.058594 147.507812 179.535156 146.699219 181.816406 C 145.890625 184.097656 144.394531 186.074219 142.417969 187.46875 C 140.441406 188.863281 138.082031 189.609375 135.664062 189.605469 Z M 135.691406 169.21875 C 135.386719 169.21875 135.082031 169.234375 134.777344 169.265625 C 132.785156 169.472656 130.921875 170.367188 129.511719 171.792969 C 128.101562 173.222656 127.230469 175.09375 127.042969 177.09375 C 126.859375 179.09375 127.371094 181.097656 128.492188 182.761719 C 129.617188 184.425781 131.28125 185.644531 133.203125 186.21875 C 135.125 186.789062 137.1875 186.679688 139.035156 185.898438 C 140.882812 185.121094 142.40625 183.726562 143.339844 181.949219 C 144.277344 180.171875 144.566406 178.125 144.164062 176.160156 C 143.765625 174.191406 142.691406 172.425781 141.136719 171.160156 C 139.597656 169.902344 137.675781 169.21875 135.691406 169.21875 Z M 135.691406 169.21875 " fill-opacity="1" fill-rule="nonzero"/><path fill="#000000" d="M 144.082031 222.710938 C 142.210938 222.710938 140.363281 222.257812 138.703125 221.394531 C 137.042969 220.53125 135.613281 219.28125 134.53125 217.75 C 133.453125 216.21875 132.757812 214.449219 132.503906 212.589844 C 132.25 210.734375 132.441406 208.84375 133.070312 207.078125 C 133.695312 205.3125 134.738281 203.722656 136.105469 202.441406 C 137.472656 201.160156 139.125 200.230469 140.929688 199.722656 C 142.730469 199.214844 144.628906 199.148438 146.460938 199.527344 C 148.292969 199.910156 150.007812 200.722656 151.460938 201.90625 C 153.339844 203.429688 154.699219 205.5 155.355469 207.832031 C 156.007812 210.164062 155.925781 212.640625 155.113281 214.921875 C 154.304688 217.203125 152.808594 219.175781 150.835938 220.570312 C 148.859375 221.964844 146.5 222.714844 144.082031 222.710938 Z M 144.101562 202.324219 C 142.058594 202.324219 140.082031 203.046875 138.519531 204.363281 C 136.957031 205.679688 135.910156 207.507812 135.5625 209.523438 C 135.214844 211.542969 135.589844 213.613281 136.625 215.378906 C 137.65625 217.144531 139.277344 218.488281 141.203125 219.171875 C 143.128906 219.855469 145.230469 219.835938 147.144531 219.117188 C 149.054688 218.398438 150.652344 217.023438 151.652344 215.242188 C 152.652344 213.457031 152.988281 211.375 152.605469 209.367188 C 152.21875 207.359375 151.140625 205.550781 149.554688 204.261719 C 148.011719 203.007812 146.085938 202.320312 144.101562 202.324219 Z M 144.101562 202.324219 " fill-opacity="1" fill-rule="nonzero"/><g clip-path="url(#3d7ea7168c)"><path fill="#000000" d="M 176.199219 251.585938 C 149.089844 251.585938 130.742188 232.25 130.507812 232 C 124.539062 226.078125 119.894531 218.953125 116.878906 211.101562 C 113.863281 203.25 112.546875 194.847656 113.015625 186.445312 C 113.484375 176.527344 116.125 166.832031 120.757812 158.050781 C 125.386719 149.269531 131.890625 141.617188 139.804688 135.632812 L 139.945312 135.515625 C 146.078125 130.914062 153.066406 127.585938 160.503906 125.730469 C 183.351562 120.121094 198.292969 126.550781 206.804688 132.929688 C 212.339844 136.992188 216.847656 142.289062 219.976562 148.402344 C 222.542969 153.914062 223.574219 160.019531 222.957031 166.074219 L 219.945312 165.753906 C 220.5 160.242188 219.558594 154.675781 217.214844 149.65625 C 216.632812 148.378906 202.558594 118.523438 161.226562 128.679688 C 154.203125 130.429688 147.597656 133.570312 141.804688 137.914062 L 141.667969 138.027344 C 134.097656 143.742188 127.878906 151.054688 123.449219 159.445312 C 119.019531 167.835938 116.492188 177.101562 116.042969 186.585938 C 115.601562 194.574219 116.855469 202.570312 119.730469 210.039062 C 122.601562 217.507812 127.023438 224.28125 132.707031 229.910156 C 133.007812 230.234375 161.605469 260.289062 199.6875 243.378906 C 199.941406 243.269531 223.957031 232.636719 223.523438 219.101562 C 223.507812 217.351562 222.855469 215.671875 221.6875 214.371094 C 220.800781 213.515625 219.738281 212.863281 218.574219 212.457031 C 217.410156 212.054688 216.171875 211.902344 214.945312 212.019531 C 212.726562 212.125 210.519531 211.667969 208.523438 210.699219 C 208.078125 210.453125 207.644531 210.207031 207.210938 209.925781 L 208.863281 207.382812 C 209.230469 207.621094 209.597656 207.828125 209.949219 208.019531 C 211.476562 208.757812 213.167969 209.089844 214.859375 208.984375 C 216.511719 208.855469 218.171875 209.082031 219.726562 209.652344 C 221.285156 210.21875 222.699219 211.113281 223.882812 212.277344 C 225.5625 214.117188 226.511719 216.507812 226.550781 219 C 227.050781 234.59375 201.972656 245.691406 200.90625 246.15625 C 193.144531 249.6875 184.726562 251.539062 176.199219 251.585938 Z M 176.199219 251.585938 " fill-opacity="1" fill-rule="nonzero"/></g><g clip-path="url(#a3b2fc2e8b)"><path fill="#000000" d="M 204.839844 215.027344 L 184.769531 195.65625 L 252.140625 137.332031 C 253.273438 136.351562 254.730469 135.832031 256.226562 135.871094 C 257.722656 135.914062 259.148438 136.515625 260.222656 137.554688 C 261.300781 138.597656 261.945312 140.003906 262.039062 141.5 C 262.132812 142.996094 261.664062 144.472656 260.722656 145.636719 Z M 189.265625 195.777344 L 204.558594 210.539062 L 258.363281 143.730469 C 258.828125 143.15625 259.0625 142.425781 259.015625 141.6875 C 258.96875 140.949219 258.648438 140.253906 258.117188 139.738281 C 257.585938 139.222656 256.882812 138.925781 256.140625 138.90625 C 255.402344 138.886719 254.683594 139.144531 254.125 139.628906 Z M 189.265625 195.777344 " fill-opacity="1" fill-rule="nonzero"/></g><path fill="#000000" d="M 180.183594 236.011719 C 173.289062 235.820312 166.511719 234.183594 160.292969 231.203125 L 156.722656 229.398438 L 160.585938 228.382812 C 165.449219 227.101562 168 222.949219 168.175781 216.046875 C 168.285156 210.914062 170.128906 205.972656 173.40625 202.027344 C 176.683594 198.082031 181.203125 195.367188 186.222656 194.328125 C 186.570312 194.253906 186.761719 194.222656 186.761719 194.222656 L 187.515625 194.09375 L 206.371094 212.285156 L 206.175781 213.121094 C 203.84375 223.316406 198.996094 230.207031 191.773438 233.605469 C 188.132812 235.253906 184.175781 236.074219 180.183594 236.011719 Z M 164.84375 229.847656 C 170.230469 231.898438 181.4375 235.121094 190.496094 230.851562 C 196.632812 227.960938 200.847656 222.050781 203.027344 213.273438 L 186.539062 197.363281 C 182.257812 198.320312 178.417969 200.691406 175.640625 204.09375 C 172.859375 207.492188 171.300781 211.730469 171.207031 216.121094 C 171.039062 222.710938 168.855469 227.382812 164.84375 229.847656 Z M 164.84375 229.847656 " fill-opacity="1" fill-rule="nonzero"/></svg>